<ttFont>
<head>
    <!-- Most of this table will be recalculated by the compiler -->
    <tableVersion value="1.0"/>
    <fontRevision value="3.011"/>
    <checkSumAdjustment value="0xc4b64515"/>
    <magicNumber value="0x5f0f3cf5"/>
    <flags value="00001000 00011011"/>
    <unitsPerEm value="2048"/>
    <created value="Fri Sep 12 12:29:34 2008"/>
    <modified value="Wed Mar 25 22:29:25 2026"/>
    <xMin value="-712"/>
    <yMin value="-526"/>
    <xMax value="1880"/>
    <yMax value="1990"/>
    <macStyle value="00000000 00000000"/>
    <lowestRecPPEM value="9"/>
    <fontDirectionHint value="2"/>
    <indexToLocFormat value="0"/>
    <glyphDataFormat value="0"/>
  </head>
    <TTGlyph name=".notdef" xMin="100" yMin="0" xMax="808" yMax="1456">
      <contour>
        <pt x="777" y="1456" on="1"/>
        <pt x="777" y="1402" on="1"/>
        <pt x="127" y="1402" on="1"/>
        <pt x="127" y="1456" on="1"/>
      </contour>
      <contour>
        <pt x="154" y="1456" on="1"/>
        <pt x="154" y="0" on="1"/>
        <pt x="100" y="0" on="1"/>
        <pt x="100" y="1456" on="1"/>
      </contour>
      <contour>
        <pt x="808" y="1456" on="1"/>
        <pt x="808" y="0" on="1"/>
        <pt x="754" y="0" on="1"/>
        <pt x="754" y="1456" on="1"/>
      </contour>
      <contour>
        <pt x="777" y="54" on="1"/>
        <pt x="777" y="0" on="1"/>
        <pt x="127" y="0" on="1"/>
        <pt x="127" y="54" on="1"/>
      </contour>
      <contour>
        <pt x="777" y="1426" on="1"/>
        <pt x="184" y="30" on="1"/>
        <pt x="126" y="30" on="1"/>
        <pt x="719" y="1426" on="1"/>
      </contour>
      <contour>
        <pt x="719" y="30" on="1"/>
        <pt x="126" y="1426" on="1"/>
        <pt x="184" y="1426" on="1"/>
        <pt x="777" y="30" on="1"/>
      </contour>
    </TTGlyph>
    <TTGlyph name="A" xMin="29" yMin="0" xMax="1310" yMax="1456">
      <contour>
        <pt x="708" y="1327" on="1"/>
        <pt x="226" y="0" on="1"/>
        <pt x="29" y="0" on="1"/>
        <pt x="584" y="1456" on="1"/>
        <pt x="711" y="1456" on="1"/>
      </contour>
      <contour>
        <pt x="1112" y="0" on="1"/>
        <pt x="629" y="1327" on="1"/>
        <pt x="626" y="1456" on="1"/>
        <pt x="753" y="1456" on="1"/>
        <pt x="1310" y="0" on="1"/>
      </contour>
      <contour>
        <pt x="1087" y="539" on="1"/>
        <pt x="1087" y="381" on="1"/>
        <pt x="269" y="381" on="1"/>
        <pt x="269" y="539" on="1"/>
      </contour>
    </TTGlyph>
    <TTGlyph name="AE" xMin="-15" yMin="0" xMax="1880" yMax="1456">
      <contour>
        <pt x="970" y="1307" on="1"/>
        <pt x="212" y="0" on="1"/>
        <pt x="-15" y="0" on="1"/>
        <pt x="866" y="1456" on="1"/>
        <pt x="985" y="1456" on="1"/>
      </contour>
      <contour>
        <pt x="1115" y="528" on="1"/>
        <pt x="1115" y="353" on="1"/>
        <pt x="372" y="353" on="1"/>
        <pt x="372" y="528" on="1"/>
      </contour>
      <contour>
        <pt x="1880" y="152" on="1"/>
        <pt x="1880" y="0" on="1"/>
        <pt x="1147" y="0" on="1"/>
        <pt x="1147" y="152" on="1"/>
      </contour>
      <contour>
        <pt x="1121" y="1456" on="1"/>
        <pt x="1182" y="0" on="1"/>
        <pt x="996" y="0" on="1"/>
        <pt x="935" y="1456" on="1"/>
      </contour>
      <contour>
        <pt x="1737" y="834" on="1"/>
        <pt x="1737" y="682" on="1"/>
        <pt x="1107" y="682" on="1"/>
        <pt x="1107" y="834" on="1"/>
      </contour>
      <contour>
        <pt x="1818" y="1456" on="1"/>
        <pt x="1818" y="1304" on="1"/>
        <pt x="1086" y="1304" on="1"/>
        <pt x="1086" y="1456" on="1"/>
      </contour>
    </TTGlyph>
    <TTGlyph name="AEacute" xMin="-15" yMin="0" xMax="1880" yMax="1858">
      <component glyphName="AE" x="0" y="0" flags="0x204"/>
      <component glyphName="acute" x="714" y="322" flags="0x4"/>
    </TTGlyph>
    <TTGlyph name="B" xMin="169" yMin="0" xMax="1160" yMax="1456">
      <contour>
        <pt x="688" y="681" on="1"/>
        <pt x="319" y="681" on="1"/>
        <pt x="317" y="836" on="1"/>
        <pt x="652" y="836" on="1"/>
        <pt x="735" y="836" on="0"/>
        <pt x="859" y="892" on="0"/>
        <pt x="928" y="997" on="0"/>
        <pt x="928" y="1070" on="1"/>
        <pt x="928" y="1150" on="0"/>
        <pt x="867" y="1251" on="0"/>
        <pt x="742" y="1298" on="0"/>
        <pt x="646" y="1298" on="1"/>
        <pt x="362" y="1298" on="1"/>
        <pt x="362" y="0" on="1"/>
        <pt x="169" y="0" on="1"/>
        <pt x="169" y="1456" on="1"/>
        <pt x="646" y="1456" on="1"/>
        <pt x="758" y="1456" on="0"/>
        <pt x="934" y="1411" on="0"/>
        <pt x="1057" y="1316" on="0"/>
        <pt x="1121" y="1170" on="0"/>
        <pt x="1121" y="1068" on="1"/>
        <pt x="1121" y="978" on="0"/>
        <pt x="1029" y="833" on="0"/>
        <pt x="866" y="741" on="0"/>
        <pt x="757" y="728" on="1"/>
      </contour>
      <contour>
        <pt x="679" y="0" on="1"/>
        <pt x="243" y="0" on="1"/>
        <pt x="352" y="157" on="1"/>
        <pt x="679" y="157" on="1"/>
        <pt x="771" y="157" on="0"/>
        <pt x="900" y="221" on="0"/>
        <pt x="968" y="338" on="0"/>
        <pt x="968" y="418" on="1"/>
        <pt x="968" y="499" on="0"/>
        <pt x="910" y="617" on="0"/>
        <pt x="786" y="681" on="0"/>
        <pt x="688" y="681" on="1"/>
        <pt x="413" y="681" on="1"/>
        <pt x="415" y="836" on="1"/>
        <pt x="791" y="836" on="1"/>
        <pt x="832" y="780" on="1"/>
        <pt x="937" y="771" on="0"/>
        <pt x="1083" y="670" on="0"/>
        <pt x="1160" y="514" on="0"/>
        <pt x="1160" y="420" on="1"/>
        <pt x="1160" y="284" on="0"/>
        <pt x="1041" y="97" on="0"/>
        <pt x="825" y="0" on="0"/>
      </contour>
    </TTGlyph>
    <TTGlyph name="C" xMin="120" yMin="-20" xMax="1240" yMax="1476">
      <contour>
        <pt x="1048" y="463" on="1"/>
        <pt x="1240" y="463" on="1"/>
        <pt x="1225" y="325" on="0"/>
        <pt x="1097" y="107" on="0"/>
        <pt x="863" y="-20" on="0"/>
        <pt x="688" y="-20" on="1"/>
        <pt x="560" y="-20" on="0"/>
        <pt x="351" y="76" on="0"/>
        <pt x="201" y="253" on="0"/>
        <pt x="120" y="502" on="0"/>
        <pt x="120" y="655" on="1"/>
        <pt x="120" y="800" on="1"/>
        <pt x="120" y="953" on="0"/>
        <pt x="201" y="1202" on="0"/>
        <pt x="354" y="1380" on="0"/>
        <pt x="570" y="1476" on="0"/>
        <pt x="705" y="1476" on="1"/>
        <pt x="870" y="1476" on="0"/>
        <pt x="1098" y="1352" on="0"/>
        <pt x="1225" y="1133" on="0"/>
        <pt x="1240" y="989" on="1"/>
        <pt x="1048" y="989" on="1"/>
        <pt x="1034" y="1091" on="0"/>
        <pt x="958" y="1238" on="0"/>
        <pt x="818" y="1318" on="0"/>
        <pt x="705" y="1318" on="1"/>
        <pt x="608" y="1318" on="0"/>
        <pt x="461" y="1244" on="0"/>
        <pt x="362" y="1108" on="0"/>
        <pt x="312" y="918" on="0"/>
        <pt x="312" y="802" on="1"/>
        <pt x="312" y="655" on="1"/>
        <pt x="312" y="548" on="0"/>
        <pt x="357" y="360" on="0"/>
        <pt x="449" y="218" on="0"/>
        <pt x="591" y="137" on="0"/>
        <pt x="688" y="137" on="1"/>
        <pt x="811" y="137" on="0"/>
        <pt x="957" y="215" on="0"/>
        <pt x="1032" y="361" on="0"/>
      </contour>
    </TTGlyph>
    <TTGlyph name="D" xMin="169" yMin="0" xMax="1223" yMax="1456">
      <contour>
        <pt x="563" y="0" on="1"/>
        <pt x="259" y="0" on="1"/>
        <pt x="261" y="157" on="1"/>
        <pt x="563" y="157" on="1"/>
        <pt x="719" y="157" on="0"/>
        <pt x="927" y="288" on="0"/>
        <pt x="1032" y="525" on="0"/>
        <pt x="1032" y="684" on="1"/>
        <pt x="1032" y="773" on="1"/>
        <pt x="1032" y="898" on="0"/>
        <pt x="972" y="1093" on="0"/>
        <pt x="856" y="1228" on="0"/>
        <pt x="689" y="1298" on="0"/>
        <pt x="581" y="1298" on="1"/>
        <pt x="253" y="1298" on="1"/>
        <pt x="253" y="1456" on="1"/>
        <pt x="581" y="1456" on="1"/>
        <pt x="724" y="1456" on="0"/>
        <pt x="960" y="1361" on="0"/>
        <pt x="1131" y="1182" on="0"/>
        <pt x="1223" y="929" on="0"/>
        <pt x="1223" y="771" on="1"/>
        <pt x="1223" y="684" on="1"/>
        <pt x="1223" y="526" on="0"/>
        <pt x="1131" y="273" on="0"/>
        <pt x="958" y="95" on="0"/>
        <pt x="715" y="0" on="0"/>
      </contour>
      <contour>
        <pt x="362" y="1456" on="1"/>
        <pt x="362" y="0" on="1"/>
        <pt x="169" y="0" on="1"/>
        <pt x="169" y="1456" on="1"/>
      </contour>
    </TTGlyph>
    <TTGlyph name="E" xMin="169" yMin="0" xMax="1094" yMax="1456">
      <contour>
        <pt x="1094" y="157" on="1"/>
        <pt x="1094" y="0" on="1"/>
        <pt x="323" y="0" on="1"/>
        <pt x="323" y="157" on="1"/>
      </contour>
      <contour>
        <pt x="362" y="1456" on="1"/>
        <pt x="362" y="0" on="1"/>
        <pt x="169" y="0" on="1"/>
        <pt x="169" y="1456" on="1"/>
      </contour>
      <contour>
        <pt x="992" y="830" on="1"/>
        <pt x="992" y="673" on="1"/>
        <pt x="323" y="673" on="1"/>
        <pt x="323" y="830" on="1"/>
      </contour>
      <contour>
        <pt x="1084" y="1456" on="1"/>
        <pt x="1084" y="1298" on="1"/>
        <pt x="323" y="1298" on="1"/>
        <pt x="323" y="1456" on="1"/>
      </contour>
    </TTGlyph>
    <TTGlyph name="F" xMin="169" yMin="0" xMax="1071" yMax="1456">
      <contour>
        <pt x="362" y="1456" on="1"/>
        <pt x="362" y="0" on="1"/>
        <pt x="169" y="0" on="1"/>
        <pt x="169" y="1456" on="1"/>
      </contour>
      <contour>
        <pt x="972" y="801" on="1"/>
        <pt x="972" y="643" on="1"/>
        <pt x="320" y="643" on="1"/>
        <pt x="320" y="801" on="1"/>
      </contour>
      <contour>
        <pt x="1071" y="1456" on="1"/>
        <pt x="1071" y="1298" on="1"/>
        <pt x="320" y="1298" on="1"/>
        <pt x="320" y="1456" on="1"/>
      </contour>
    </TTGlyph>
    <TTGlyph name="G" xMin="122" yMin="-20" xMax="1245" yMax="1476">
      <contour>
        <pt x="1245" y="725" on="1"/>
        <pt x="1245" y="192" on="1"/>
        <pt x="1218" y="152" on="0"/>
        <pt x="1100" y="53" on="0"/>
        <pt x="893" y="-20" on="0"/>
        <pt x="730" y="-20" on="1"/>
        <pt x="597" y="-20" on="0"/>
        <pt x="374" y="73" on="0"/>
        <pt x="211" y="252" on="0"/>
        <pt x="122" y="509" on="0"/>
        <pt x="122" y="672" on="1"/>
        <pt x="122" y="785" on="1"/>
        <pt x="122" y="948" on="0"/>
        <pt x="199" y="1204" on="0"/>
        <pt x="349" y="1383" on="0"/>
        <pt x="567" y="1476" on="0"/>
        <pt x="708" y="1476" on="1"/>
        <pt x="875" y="1476" on="0"/>
        <pt x="1100" y="1361" on="0"/>
        <pt x="1227" y="1159" on="0"/>
        <pt x="1245" y="1030" on="1"/>
        <pt x="1052" y="1030" on="1"/>
        <pt x="1039" y="1109" on="0"/>
        <pt x="962" y="1239" on="0"/>
        <pt x="820" y="1318" on="0"/>
        <pt x="708" y="1318" on="1"/>
        <pt x="607" y="1318" on="0"/>
        <pt x="459" y="1244" on="0"/>
        <pt x="363" y="1106" on="0"/>
        <pt x="316" y="910" on="0"/>
        <pt x="316" y="787" on="1"/>
        <pt x="316" y="672" on="1"/>
        <pt x="316" y="546" on="0"/>
        <pt x="375" y="348" on="0"/>
        <pt x="485" y="209" on="0"/>
        <pt x="638" y="137" on="0"/>
        <pt x="731" y="137" on="1"/>
        <pt x="834" y="137" on="0"/>
        <pt x="962" y="172" on="0"/>
        <pt x="1034" y="221" on="0"/>
        <pt x="1053" y="243" on="1"/>
        <pt x="1053" y="569" on="1"/>
        <pt x="716" y="569" on="1"/>
        <pt x="716" y="725" on="1"/>
      </contour>
    </TTGlyph>
    <TTGlyph name="H" xMin="169" yMin="0" xMax="1288" yMax="1456">
      <contour>
        <pt x="1120" y="830" on="1"/>
        <pt x="1120" y="673" on="1"/>
        <pt x="332" y="673" on="1"/>
        <pt x="332" y="830" on="1"/>
      </contour>
      <contour>
        <pt x="362" y="1456" on="1"/>
        <pt x="362" y="0" on="1"/>
        <pt x="169" y="0" on="1"/>
        <pt x="169" y="1456" on="1"/>
      </contour>
      <contour>
        <pt x="1288" y="1456" on="1"/>
        <pt x="1288" y="0" on="1"/>
        <pt x="1096" y="0" on="1"/>
        <pt x="1096" y="1456" on="1"/>
      </contour>
    </TTGlyph>
    <TTGlyph name="I" xMin="183" yMin="0" xMax="376" yMax="1456">
      <contour>
        <pt x="376" y="1456" on="1"/>
        <pt x="376" y="0" on="1"/>
        <pt x="183" y="0" on="1"/>
        <pt x="183" y="1456" on="1"/>
      </contour>
    </TTGlyph>
    <TTGlyph name="J" xMin="53" yMin="-20" xMax="972" yMax="1456">
      <contour>
        <pt x="780" y="425" on="1"/>
        <pt x="780" y="1456" on="1"/>
        <pt x="972" y="1456" on="1"/>
        <pt x="972" y="425" on="1"/>
        <pt x="972" y="281" on="0"/>
        <pt x="854" y="83" on="0"/>
        <pt x="647" y="-20" on="0"/>
        <pt x="513" y="-20" on="1"/>
        <pt x="379" y="-20" on="0"/>
        <pt x="171" y="72" on="0"/>
        <pt x="53" y="260" on="0"/>
        <pt x="53" y="403" on="1"/>
        <pt x="246" y="403" on="1"/>
        <pt x="246" y="311" on="0"/>
        <pt x="314" y="193" on="0"/>
        <pt x="435" y="137" on="0"/>
        <pt x="513" y="137" on="1"/>
        <pt x="589" y="137" on="0"/>
        <pt x="710" y="202" on="0"/>
        <pt x="780" y="331" on="0"/>
      </contour>
    </TTGlyph>
    <TTGlyph name="K" xMin="169" yMin="0" xMax="1285" yMax="1456">
      <contour>
        <pt x="362" y="1456" on="1"/>
        <pt x="362" y="0" on="1"/>
        <pt x="169" y="0" on="1"/>
        <pt x="169" y="1456" on="1"/>
      </contour>
      <contour>
        <pt x="1241" y="1456" on="1"/>
        <pt x="636" y="777" on="1"/>
        <pt x="296" y="424" on="1"/>
        <pt x="264" y="630" on="1"/>
        <pt x="520" y="912" on="1"/>
        <pt x="1009" y="1456" on="1"/>
      </contour>
      <contour>
        <pt x="1055" y="0" on="1"/>
        <pt x="516" y="710" on="1"/>
        <pt x="631" y="863" on="1"/>
        <pt x="1285" y="0" on="1"/>
      </contour>
    </TTGlyph>
    <TTGlyph name="L" xMin="169" yMin="0" xMax="1052" yMax="1456">
      <contour>
        <pt x="1052" y="157" on="1"/>
        <pt x="1052" y="0" on="1"/>
        <pt x="324" y="0" on="1"/>
        <pt x="324" y="157" on="1"/>
      </contour>
      <contour>
        <pt x="362" y="1456" on="1"/>
        <pt x="362" y="0" on="1"/>
        <pt x="169" y="0" on="1"/>
        <pt x="169" y="1456" on="1"/>
      </contour>
    </TTGlyph>
    <TTGlyph name="M" xMin="169" yMin="0" xMax="1618" yMax="1456">
      <contour>
        <pt x="230" y="1456" on="1"/>
        <pt x="417" y="1456" on="1"/>
        <pt x="894" y="269" on="1"/>
        <pt x="1370" y="1456" on="1"/>
        <pt x="1558" y="1456" on="1"/>
        <pt x="966" y="0" on="1"/>
        <pt x="820" y="0" on="1"/>
      </contour>
      <contour>
        <pt x="169" y="1456" on="1"/>
        <pt x="334" y="1456" on="1"/>
        <pt x="361" y="568" on="1"/>
        <pt x="361" y="0" on="1"/>
        <pt x="169" y="0" on="1"/>
      </contour>
      <contour>
        <pt x="1453" y="1456" on="1"/>
        <pt x="1618" y="1456" on="1"/>
        <pt x="1618" y="0" on="1"/>
        <pt x="1426" y="0" on="1"/>
        <pt x="1426" y="568" on="1"/>
      </contour>
    </TTGlyph>
    <TTGlyph name="N" xMin="169" yMin="0" xMax="1289" yMax="1456">
      <contour>
        <pt x="1289" y="1456" on="1"/>
        <pt x="1289" y="0" on="1"/>
        <pt x="1095" y="0" on="1"/>
        <pt x="362" y="1123" on="1"/>
        <pt x="362" y="0" on="1"/>
        <pt x="169" y="0" on="1"/>
        <pt x="169" y="1456" on="1"/>
        <pt x="362" y="1456" on="1"/>
        <pt x="1098" y="330" on="1"/>
        <pt x="1098" y="1456" on="1"/>
      </contour>
    </TTGlyph>
    <TTGlyph name="O" xMin="119" yMin="-20" xMax="1290" yMax="1476">
      <contour>
        <pt x="1290" y="774" on="1"/>
        <pt x="1290" y="682" on="1"/>
        <pt x="1290" y="518" on="0"/>
        <pt x="1208" y="258" on="0"/>
        <pt x="1054" y="76" on="0"/>
        <pt x="839" y="-20" on="0"/>
        <pt x="706" y="-20" on="1"/>
        <pt x="577" y="-20" on="0"/>
        <pt x="362" y="76" on="0"/>
        <pt x="205" y="258" on="0"/>
        <pt x="119" y="518" on="0"/>
        <pt x="119" y="682" on="1"/>
        <pt x="119" y="774" on="1"/>
        <pt x="119" y="938" on="0"/>
        <pt x="204" y="1197" on="0"/>
        <pt x="360" y="1380" on="0"/>
        <pt x="575" y="1476" on="0"/>
        <pt x="704" y="1476" on="1"/>
        <pt x="837" y="1476" on="0"/>
        <pt x="1052" y="1380" on="0"/>
        <pt x="1207" y="1197" on="0"/>
        <pt x="1290" y="938" on="0"/>
      </contour>
      <contour>
        <pt x="1099" y="682" on="1"/>
        <pt x="1099" y="776" on="1"/>
        <pt x="1099" y="906" on="0"/>
        <pt x="1046" y="1106" on="0"/>
        <pt x="944" y="1242" on="0"/>
        <pt x="797" y="1312" on="0"/>
        <pt x="704" y="1312" on="1"/>
        <pt x="614" y="1312" on="0"/>
        <pt x="469" y="1242" on="0"/>
        <pt x="366" y="1106" on="0"/>
        <pt x="310" y="906" on="0"/>
        <pt x="310" y="776" on="1"/>
        <pt x="310" y="682" on="1"/>
        <pt x="310" y="551" on="0"/>
        <pt x="366" y="350" on="0"/>
        <pt x="471" y="213" on="0"/>
        <pt x="616" y="143" on="0"/>
        <pt x="706" y="143" on="1"/>
        <pt x="800" y="143" on="0"/>
        <pt x="946" y="213" on="0"/>
        <pt x="1047" y="350" on="0"/>
        <pt x="1099" y="551" on="0"/>
      </contour>
    </TTGlyph>
    <TTGlyph name="Ohorn" xMin="102" yMin="-20" xMax="1437" yMax="1592">
      <contour>
        <pt x="1270" y="1592" on="1"/>
        <pt x="1437" y="1592" on="1"/>
        <pt x="1437" y="1463" on="0"/>
        <pt x="1353" y="1281" on="0"/>
        <pt x="1184" y="1186" on="0"/>
        <pt x="1057" y="1186" on="1"/>
        <pt x="1057" y="1321" on="1"/>
        <pt x="1136" y="1321" on="0"/>
        <pt x="1229" y="1385" on="0"/>
        <pt x="1270" y="1507" on="0"/>
      </contour>
      <contour>
        <pt x="1273" y="774" on="1"/>
        <pt x="1273" y="682" on="1"/>
        <pt x="1273" y="518" on="0"/>
        <pt x="1191" y="258" on="0"/>
        <pt x="1037" y="76" on="0"/>
        <pt x="822" y="-20" on="0"/>
        <pt x="689" y="-20" on="1"/>
        <pt x="586" y="-20" on="0"/>
        <pt x="406" y="42" on="0"/>
        <pt x="261" y="161" on="0"/>
        <pt x="157" y="332" on="0"/>
        <pt x="102" y="551" on="0"/>
        <pt x="102" y="682" on="1"/>
        <pt x="102" y="774" on="1"/>
        <pt x="102" y="938" on="0"/>
        <pt x="187" y="1197" on="0"/>
        <pt x="343" y="1380" on="0"/>
        <pt x="558" y="1476" on="0"/>
        <pt x="687" y="1476" on="1"/>
        <pt x="793" y="1476" on="0"/>
        <pt x="975" y="1414" on="0"/>
        <pt x="1118" y="1295" on="0"/>
        <pt x="1220" y="1124" on="0"/>
        <pt x="1273" y="905" on="0"/>
      </contour>
      <contour>
        <pt x="1082" y="682" on="1"/>
        <pt x="1082" y="776" on="1"/>
        <pt x="1082" y="880" on="0"/>
        <pt x="1048" y="1049" on="0"/>
        <pt x="982" y="1179" on="0"/>
        <pt x="886" y="1267" on="0"/>
        <pt x="762" y="1312" on="0"/>
        <pt x="687" y="1312" on="1"/>
        <pt x="598" y="1312" on="0"/>
        <pt x="453" y="1242" on="0"/>
        <pt x="349" y="1106" on="0"/>
        <pt x="293" y="906" on="0"/>
        <pt x="293" y="776" on="1"/>
        <pt x="293" y="682" on="1"/>
        <pt x="293" y="577" on="0"/>
        <pt x="329" y="407" on="0"/>
        <pt x="398" y="276" on="0"/>
        <pt x="495" y="188" on="0"/>
        <pt x="618" y="143" on="0"/>
        <pt x="689" y="143" on="1"/>
        <pt x="783" y="143" on="0"/>
        <pt x="929" y="213" on="0"/>
        <pt x="1030" y="350" on="0"/>
        <pt x="1082" y="551" on="0"/>
      </contour>
    </TTGlyph>
    <TTGlyph name="Oslash" xMin="119" yMin="-93" xMax="1309" yMax="1516">
      <contour>
        <pt x="1309" y="1516" on="1"/>
        <pt x="307" y="-93" on="1"/>
        <pt x="164" y="-93" on="1"/>
        <pt x="1169" y="1516" on="1"/>
      </contour>
      <contour>
        <pt x="1290" y="774" on="1"/>
        <pt x="1290" y="682" on="1"/>
        <pt x="1290" y="518" on="0"/>
        <pt x="1208" y="258" on="0"/>
        <pt x="1054" y="76" on="0"/>
        <pt x="839" y="-20" on="0"/>
        <pt x="706" y="-20" on="1"/>
        <pt x="603" y="-20" on="0"/>
        <pt x="423" y="42" on="0"/>
        <pt x="278" y="161" on="0"/>
        <pt x="174" y="332" on="0"/>
        <pt x="119" y="551" on="0"/>
        <pt x="119" y="682" on="1"/>
        <pt x="119" y="774" on="1"/>
        <pt x="119" y="938" on="0"/>
        <pt x="204" y="1197" on="0"/>
        <pt x="360" y="1380" on="0"/>
        <pt x="575" y="1476" on="0"/>
        <pt x="704" y="1476" on="1"/>
        <pt x="810" y="1476" on="0"/>
        <pt x="991" y="1414" on="0"/>
        <pt x="1135" y="1295" on="0"/>
        <pt x="1236" y="1124" on="0"/>
        <pt x="1290" y="905" on="0"/>
      </contour>
      <contour>
        <pt x="1099" y="682" on="1"/>
        <pt x="1099" y="776" on="1"/>
        <pt x="1099" y="880" on="0"/>
        <pt x="1065" y="1049" on="0"/>
        <pt x="999" y="1179" on="0"/>
        <pt x="903" y="1267" on="0"/>
        <pt x="779" y="1312" on="0"/>
        <pt x="704" y="1312" on="1"/>
        <pt x="614" y="1312" on="0"/>
        <pt x="469" y="1242" on="0"/>
        <pt x="366" y="1106" on="0"/>
        <pt x="310" y="906" on="0"/>
        <pt x="310" y="776" on="1"/>
        <pt x="310" y="682" on="1"/>
        <pt x="310" y="577" on="0"/>
        <pt x="346" y="407" on="0"/>
        <pt x="415" y="276" on="0"/>
        <pt x="512" y="188" on="0"/>
        <pt x="634" y="143" on="0"/>
        <pt x="706" y="143" on="1"/>
        <pt x="800" y="143" on="0"/>
        <pt x="946" y="213" on="0"/>
        <pt x="1047" y="350" on="0"/>
        <pt x="1099" y="551" on="0"/>
      </contour>
    </TTGlyph>
    <TTGlyph name="Oslashacute" xMin="119" yMin="-93" xMax="1309" yMax="1920">
      <component glyphName="Oslash" x="0" y="0" flags="0x204"/>
      <component glyphName="acute" x="490" y="384" flags="0x4"/>
    </TTGlyph>
    <TTGlyph name="P" xMin="169" yMin="0" xMax="1217" yMax="1456">
      <contour>
        <pt x="706" y="571" on="1"/>
        <pt x="317" y="571" on="1"/>
        <pt x="317" y="728" on="1"/>
        <pt x="706" y="728" on="1"/>
        <pt x="819" y="728" on="0"/>
        <pt x="959" y="800" on="0"/>
        <pt x="1024" y="928" on="0"/>
        <pt x="1024" y="1010" on="1"/>
        <pt x="1024" y="1085" on="0"/>
        <pt x="959" y="1217" on="0"/>
        <pt x="819" y="1298" on="0"/>
        <pt x="706" y="1298" on="1"/>
        <pt x="362" y="1298" on="1"/>
        <pt x="362" y="0" on="1"/>
        <pt x="169" y="0" on="1"/>
        <pt x="169" y="1456" on="1"/>
        <pt x="706" y="1456" on="1"/>
        <pt x="871" y="1456" on="0"/>
        <pt x="1099" y="1342" on="0"/>
        <pt x="1217" y="1141" on="0"/>
        <pt x="1217" y="1012" on="1"/>
        <pt x="1217" y="872" on="0"/>
        <pt x="1099" y="674" on="0"/>
        <pt x="871" y="571" on="0"/>
      </contour>
    </TTGlyph>
    <TTGlyph name="Q" xMin="110" yMin="-246" xMax="1286" yMax="1476">
      <contour>
        <pt x="916" y="167" on="1"/>
        <pt x="1286" y="-126" on="1"/>
        <pt x="1156" y="-246" on="1"/>
        <pt x="792" y="43" on="1"/>
      </contour>
      <contour>
        <pt x="1281" y="774" on="1"/>
        <pt x="1281" y="682" on="1"/>
        <pt x="1281" y="518" on="0"/>
        <pt x="1199" y="258" on="0"/>
        <pt x="1045" y="76" on="0"/>
        <pt x="830" y="-20" on="0"/>
        <pt x="697" y="-20" on="1"/>
        <pt x="568" y="-20" on="0"/>
        <pt x="353" y="76" on="0"/>
        <pt x="196" y="258" on="0"/>
        <pt x="110" y="518" on="0"/>
        <pt x="110" y="682" on="1"/>
        <pt x="110" y="774" on="1"/>
        <pt x="110" y="938" on="0"/>
        <pt x="195" y="1197" on="0"/>
        <pt x="351" y="1380" on="0"/>
        <pt x="566" y="1476" on="0"/>
        <pt x="695" y="1476" on="1"/>
        <pt x="828" y="1476" on="0"/>
        <pt x="1044" y="1380" on="0"/>
        <pt x="1198" y="1197" on="0"/>
        <pt x="1281" y="938" on="0"/>
      </contour>
      <contour>
        <pt x="1090" y="682" on="1"/>
        <pt x="1090" y="776" on="1"/>
        <pt x="1090" y="906" on="0"/>
        <pt x="1037" y="1106" on="0"/>
        <pt x="935" y="1242" on="0"/>
        <pt x="789" y="1312" on="0"/>
        <pt x="695" y="1312" on="1"/>
        <pt x="606" y="1312" on="0"/>
        <pt x="461" y="1242" on="0"/>
        <pt x="357" y="1106" on="0"/>
        <pt x="301" y="906" on="0"/>
        <pt x="301" y="776" on="1"/>
        <pt x="301" y="682" on="1"/>
        <pt x="301" y="551" on="0"/>
        <pt x="357" y="350" on="0"/>
        <pt x="462" y="213" on="0"/>
        <pt x="608" y="143" on="0"/>
        <pt x="697" y="143" on="1"/>
        <pt x="791" y="143" on="0"/>
        <pt x="937" y="213" on="0"/>
        <pt x="1038" y="350" on="0"/>
        <pt x="1090" y="551" on="0"/>
      </contour>
    </TTGlyph>
    <TTGlyph name="R" xMin="169" yMin="0" xMax="1226" yMax="1456">
      <contour>
        <pt x="169" y="1456" on="1"/>
        <pt x="651" y="1456" on="1"/>
        <pt x="815" y="1456" on="0"/>
        <pt x="1042" y="1356" on="0"/>
        <pt x="1161" y="1161" on="0"/>
        <pt x="1161" y="1019" on="1"/>
        <pt x="1161" y="919" on="0"/>
        <pt x="1080" y="754" on="0"/>
        <pt x="929" y="639" on="0"/>
        <pt x="824" y="611" on="1"/>
        <pt x="770" y="590" on="1"/>
        <pt x="317" y="590" on="1"/>
        <pt x="315" y="747" on="1"/>
        <pt x="657" y="747" on="1"/>
        <pt x="761" y="747" on="0"/>
        <pt x="899" y="820" on="0"/>
        <pt x="969" y="944" on="0"/>
        <pt x="969" y="1019" on="1"/>
        <pt x="969" y="1103" on="0"/>
        <pt x="903" y="1229" on="0"/>
        <pt x="762" y="1298" on="0"/>
        <pt x="651" y="1298" on="1"/>
        <pt x="362" y="1298" on="1"/>
        <pt x="362" y="0" on="1"/>
        <pt x="169" y="0" on="1"/>
      </contour>
      <contour>
        <pt x="1020" y="0" on="1"/>
        <pt x="666" y="660" on="1"/>
        <pt x="867" y="661" on="1"/>
        <pt x="1226" y="12" on="1"/>
        <pt x="1226" y="0" on="1"/>
      </contour>
    </TTGlyph>
    <TTGlyph name="S" xMin="81" yMin="-20" xMax="1139" yMax="1476">
      <contour>
        <pt x="945" y="368" on="1"/>
        <pt x="945" y="419" on="0"/>
        <pt x="914" y="498" on="0"/>
        <pt x="837" y="562" on="0"/>
        <pt x="702" y="620" on="0"/>
        <pt x="599" y="650" on="1"/>
        <pt x="491" y="682" on="0"/>
        <pt x="317" y="761" on="0"/>
        <pt x="193" y="863" on="0"/>
        <pt x="127" y="995" on="0"/>
        <pt x="127" y="1080" on="1"/>
        <pt x="127" y="1165" on="0"/>
        <pt x="197" y="1309" on="0"/>
        <pt x="328" y="1416" on="0"/>
        <pt x="510" y="1476" on="0"/>
        <pt x="622" y="1476" on="1"/>
        <pt x="786" y="1476" on="0"/>
        <pt x="1015" y="1351" on="0"/>
        <pt x="1135" y="1150" on="0"/>
        <pt x="1135" y="1036" on="1"/>
        <pt x="943" y="1036" on="1"/>
        <pt x="943" y="1118" on="0"/>
        <pt x="873" y="1245" on="0"/>
        <pt x="731" y="1318" on="0"/>
        <pt x="622" y="1318" on="1"/>
        <pt x="519" y="1318" on="0"/>
        <pt x="385" y="1256" on="0"/>
        <pt x="320" y="1150" on="0"/>
        <pt x="320" y="1082" on="1"/>
        <pt x="320" y="1036" on="0"/>
        <pt x="359" y="961" on="0"/>
        <pt x="442" y="897" on="0"/>
        <pt x="571" y="843" on="0"/>
        <pt x="661" y="818" on="1"/>
        <pt x="785" y="783" on="0"/>
        <pt x="965" y="697" on="0"/>
        <pt x="1082" y="590" on="0"/>
        <pt x="1139" y="455" on="0"/>
        <pt x="1139" y="370" on="1"/>
        <pt x="1139" y="281" on="0"/>
        <pt x="1067" y="137" on="0"/>
        <pt x="933" y="35" on="0"/>
        <pt x="746" y="-20" on="0"/>
        <pt x="631" y="-20" on="1"/>
        <pt x="530" y="-20" on="0"/>
        <pt x="335" y="36" on="0"/>
        <pt x="176" y="148" on="0"/>
        <pt x="81" y="313" on="0"/>
        <pt x="81" y="422" on="1"/>
        <pt x="273" y="422" on="1"/>
        <pt x="273" y="347" on="0"/>
        <pt x="331" y="240" on="0"/>
        <pt x="432" y="170" on="0"/>
        <pt x="561" y="137" on="0"/>
        <pt x="631" y="137" on="1"/>
        <pt x="732" y="137" on="0"/>
        <pt x="872" y="193" on="0"/>
        <pt x="945" y="297" on="0"/>
      </contour>
    </TTGlyph>
    <TTGlyph name="T" xMin="50" yMin="0" xMax="1175" yMax="1456">
      <contour>
        <pt x="707" y="1456" on="1"/>
        <pt x="707" y="0" on="1"/>
        <pt x="517" y="0" on="1"/>
        <pt x="517" y="1456" on="1"/>
      </contour>
      <contour>
        <pt x="1175" y="1456" on="1"/>
        <pt x="1175" y="1298" on="1"/>
        <pt x="50" y="1298" on="1"/>
        <pt x="50" y="1456" on="1"/>
      </contour>
    </TTGlyph>
    <TTGlyph name="U" xMin="140" yMin="-20" xMax="1194" yMax="1456">
      <contour>
        <pt x="1002" y="1456" on="1"/>
        <pt x="1194" y="1456" on="1"/>
        <pt x="1194" y="471" on="1"/>
        <pt x="1194" y="307" on="0"/>
        <pt x="1048" y="89" on="0"/>
        <pt x="807" y="-20" on="0"/>
        <pt x="666" y="-20" on="1"/>
        <pt x="518" y="-20" on="0"/>
        <pt x="279" y="89" on="0"/>
        <pt x="140" y="307" on="0"/>
        <pt x="140" y="471" on="1"/>
        <pt x="140" y="1456" on="1"/>
        <pt x="331" y="1456" on="1"/>
        <pt x="331" y="471" on="1"/>
        <pt x="331" y="357" on="0"/>
        <pt x="415" y="209" on="0"/>
        <pt x="566" y="137" on="0"/>
        <pt x="666" y="137" on="1"/>
        <pt x="767" y="137" on="0"/>
        <pt x="918" y="209" on="0"/>
        <pt x="1002" y="357" on="0"/>
        <pt x="1002" y="471" on="1"/>
      </contour>
    </TTGlyph>
    <TTGlyph name="Uhorn" xMin="140" yMin="-20" xMax="1565" yMax="1538">
      <contour>
        <pt x="1407" y="1538" on="1"/>
        <pt x="1565" y="1538" on="1"/>
        <pt x="1565" y="1397" on="0"/>
        <pt x="1482" y="1205" on="0"/>
        <pt x="1299" y="1107" on="0"/>
        <pt x="1148" y="1107" on="1"/>
        <pt x="1148" y="1242" on="1"/>
        <pt x="1250" y="1242" on="0"/>
        <pt x="1363" y="1309" on="0"/>
        <pt x="1407" y="1441" on="0"/>
      </contour>
      <contour>
        <pt x="1002" y="1456" on="1"/>
        <pt x="1194" y="1456" on="1"/>
        <pt x="1194" y="471" on="1"/>
        <pt x="1194" y="307" on="0"/>
        <pt x="1048" y="89" on="0"/>
        <pt x="807" y="-20" on="0"/>
        <pt x="666" y="-20" on="1"/>
        <pt x="518" y="-20" on="0"/>
        <pt x="279" y="89" on="0"/>
        <pt x="140" y="307" on="0"/>
        <pt x="140" y="471" on="1"/>
        <pt x="140" y="1456" on="1"/>
        <pt x="331" y="1456" on="1"/>
        <pt x="331" y="471" on="1"/>
        <pt x="331" y="357" on="0"/>
        <pt x="415" y="209" on="0"/>
        <pt x="566" y="137" on="0"/>
        <pt x="666" y="137" on="1"/>
        <pt x="767" y="137" on="0"/>
        <pt x="918" y="209" on="0"/>
        <pt x="1002" y="357" on="0"/>
        <pt x="1002" y="471" on="1"/>
      </contour>
    </TTGlyph>
    <TTGlyph name="V" xMin="29" yMin="0" xMax="1277" yMax="1456">
      <contour>
        <pt x="639" y="221" on="1"/>
        <pt x="1068" y="1456" on="1"/>
        <pt x="1277" y="1456" on="1"/>
        <pt x="738" y="0" on="1"/>
        <pt x="589" y="0" on="1"/>
      </contour>
      <contour>
        <pt x="238" y="1456" on="1"/>
        <pt x="663" y="221" on="1"/>
        <pt x="716" y="0" on="1"/>
        <pt x="567" y="0" on="1"/>
        <pt x="29" y="1456" on="1"/>
      </contour>
    </TTGlyph>
    <TTGlyph name="W" xMin="61" yMin="0" xMax="1773" yMax="1456">
      <contour>
        <pt x="552" y="440" on="1"/>
        <pt x="841" y="1456" on="1"/>
        <pt x="981" y="1456" on="1"/>
        <pt x="900" y="1061" on="1"/>
        <pt x="589" y="0" on="1"/>
        <pt x="450" y="0" on="1"/>
      </contour>
      <contour>
        <pt x="253" y="1456" on="1"/>
        <pt x="483" y="460" on="1"/>
        <pt x="552" y="0" on="1"/>
        <pt x="414" y="0" on="1"/>
        <pt x="61" y="1456" on="1"/>
      </contour>
      <contour>
        <pt x="1355" y="461" on="1"/>
        <pt x="1580" y="1456" on="1"/>
        <pt x="1773" y="1456" on="1"/>
        <pt x="1421" y="0" on="1"/>
        <pt x="1283" y="0" on="1"/>
      </contour>
      <contour>
        <pt x="1002" y="1456" on="1"/>
        <pt x="1283" y="440" on="1"/>
        <pt x="1385" y="0" on="1"/>
        <pt x="1246" y="0" on="1"/>
        <pt x="946" y="1061" on="1"/>
        <pt x="864" y="1456" on="1"/>
      </contour>
    </TTGlyph>
    <TTGlyph name="X" xMin="58" yMin="0" xMax="1230" yMax="1456">
      <contour>
        <pt x="294" y="1456" on="1"/>
        <pt x="644" y="898" on="1"/>
        <pt x="994" y="1456" on="1"/>
        <pt x="1219" y="1456" on="1"/>
        <pt x="759" y="735" on="1"/>
        <pt x="1230" y="0" on="1"/>
        <pt x="1003" y="0" on="1"/>
        <pt x="644" y="569" on="1"/>
        <pt x="285" y="0" on="1"/>
        <pt x="58" y="0" on="1"/>
        <pt x="529" y="735" on="1"/>
        <pt x="69" y="1456" on="1"/>
      </contour>
    </TTGlyph>
    <TTGlyph name="Y" xMin="15" yMin="0" xMax="1212" yMax="1456">
      <contour>
        <pt x="236" y="1456" on="1"/>
        <pt x="614" y="725" on="1"/>
        <pt x="993" y="1456" on="1"/>
        <pt x="1212" y="1456" on="1"/>
        <pt x="710" y="544" on="1"/>
        <pt x="710" y="0" on="1"/>
        <pt x="517" y="0" on="1"/>
        <pt x="517" y="544" on="1"/>
        <pt x="15" y="1456" on="1"/>
      </contour>
    </TTGlyph>
    <TTGlyph name="Yacute" xMin="15" yMin="0" xMax="1212" yMax="1846">
      <component glyphName="Y" x="0" y="0" flags="0x204"/>
      <component glyphName="acute" x="393" y="310" flags="0x4"/>
    </TTGlyph>
    <TTGlyph name="Ygrave" xMin="15" yMin="0" xMax="1212" yMax="1846">
      <component glyphName="Y" x="0" y="0" flags="0x204"/>
      <component glyphName="grave" x="249" y="310" flags="0x4"/>
    </TTGlyph>
    <TTGlyph name="Z" xMin="87" yMin="0" xMax="1146" yMax="1456">
      <contour>
        <pt x="1146" y="157" on="1"/>
        <pt x="1146" y="0" on="1"/>
        <pt x="160" y="0" on="1"/>
        <pt x="160" y="157" on="1"/>
      </contour>
      <contour>
        <pt x="1114" y="1316" on="1"/>
        <pt x="206" y="0" on="1"/>
        <pt x="87" y="0" on="1"/>
        <pt x="87" y="144" on="1"/>
        <pt x="994" y="1456" on="1"/>
        <pt x="1114" y="1456" on="1"/>
      </contour>
      <contour>
        <pt x="1032" y="1456" on="1"/>
        <pt x="1032" y="1298" on="1"/>
        <pt x="100" y="1298" on="1"/>
        <pt x="100" y="1456" on="1"/>
      </contour>
    </TTGlyph>
    <TTGlyph name="a" xMin="109" yMin="-20" xMax="1002" yMax="1102">
      <contour>
        <pt x="779" y="185" on="1"/>
        <pt x="779" y="742" on="1"/>
        <pt x="779" y="806" on="0"/>
        <pt x="728" y="901" on="0"/>
        <pt x="626" y="953" on="0"/>
        <pt x="551" y="953" on="1"/>
        <pt x="481" y="953" on="0"/>
        <pt x="376" y="905" on="0"/>
        <pt x="317" y="827" on="0"/>
        <pt x="317" y="782" on="1"/>
        <pt x="132" y="782" on="1"/>
        <pt x="132" y="840" on="0"/>
        <pt x="192" y="954" on="0"/>
        <pt x="305" y="1047" on="0"/>
        <pt x="464" y="1102" on="0"/>
        <pt x="562" y="1102" on="1"/>
        <pt x="680" y="1102" on="0"/>
        <pt x="861" y="1022" on="0"/>
        <pt x="964" y="861" on="0"/>
        <pt x="964" y="740" on="1"/>
        <pt x="964" y="236" on="1"/>
        <pt x="964" y="182" on="0"/>
        <pt x="983" y="60" on="0"/>
        <pt x="1002" y="16" on="1"/>
        <pt x="1002" y="0" on="1"/>
        <pt x="809" y="0" on="1"/>
        <pt x="795" y="32" on="0"/>
        <pt x="779" y="139" on="0"/>
      </contour>
      <contour>
        <pt x="811" y="656" on="1"/>
        <pt x="813" y="526" on="1"/>
        <pt x="626" y="526" on="1"/>
        <pt x="547" y="526" on="0"/>
        <pt x="423" y="501" on="0"/>
        <pt x="339" y="451" on="0"/>
        <pt x="295" y="376" on="0"/>
        <pt x="295" y="326" on="1"/>
        <pt x="295" y="275" on="0"/>
        <pt x="341" y="191" on="0"/>
        <pt x="434" y="142" on="0"/>
        <pt x="502" y="142" on="1"/>
        <pt x="587" y="142" on="0"/>
        <pt x="717" y="214" on="0"/>
        <pt x="794" y="318" on="0"/>
        <pt x="797" y="367" on="1"/>
        <pt x="876" y="278" on="1"/>
        <pt x="869" y="236" on="0"/>
        <pt x="807" y="134" on="0"/>
        <pt x="704" y="41" on="0"/>
        <pt x="563" y="-20" on="0"/>
        <pt x="475" y="-20" on="1"/>
        <pt x="365" y="-20" on="0"/>
        <pt x="200" y="66" on="0"/>
        <pt x="109" y="211" on="0"/>
        <pt x="109" y="301" on="1"/>
        <pt x="109" y="388" on="0"/>
        <pt x="177" y="521" on="0"/>
        <pt x="305" y="610" on="0"/>
        <pt x="485" y="656" on="0"/>
        <pt x="596" y="656" on="1"/>
      </contour>
    </TTGlyph>
    <TTGlyph name="abreve" xMin="109" yMin="-20" xMax="1002" yMax="1495">
      <component glyphName="a" x="0" y="0" flags="0x204"/>
      <component glyphName="breve" x="153" y="0" flags="0x4"/>
    </TTGlyph>
    <TTGlyph name="acute" xMin="123" yMin="1242" xMax="540" yMax="1536">
      <contour>
        <pt x="123" y="1242" on="1"/>
        <pt x="317" y="1536" on="1"/>
        <pt x="540" y="1536" on="1"/>
        <pt x="272" y="1242" on="1"/>
      </contour>
    </TTGlyph>
    <TTGlyph name="ae" xMin="79" yMin="-21" xMax="1661" yMax="1103">
      <contour>
        <pt x="749" y="183" on="1"/>
        <pt x="749" y="720" on="1"/>
        <pt x="749" y="792" on="0"/>
        <pt x="700" y="895" on="0"/>
        <pt x="604" y="950" on="0"/>
        <pt x="535" y="950" on="1"/>
        <pt x="461" y="950" on="0"/>
        <pt x="351" y="898" on="0"/>
        <pt x="291" y="812" on="0"/>
        <pt x="291" y="760" on="1"/>
        <pt x="107" y="778" on="1"/>
        <pt x="107" y="848" on="0"/>
        <pt x="169" y="966" on="0"/>
        <pt x="282" y="1054" on="0"/>
        <pt x="439" y="1102" on="0"/>
        <pt x="535" y="1102" on="1"/>
        <pt x="653" y="1102" on="0"/>
        <pt x="830" y="1016" on="0"/>
        <pt x="929" y="846" on="0"/>
        <pt x="929" y="718" on="1"/>
        <pt x="929" y="218" on="1"/>
      </contour>
      <contour>
        <pt x="790" y="636" on="1"/>
        <pt x="790" y="496" on="1"/>
        <pt x="529" y="496" on="1"/>
        <pt x="442" y="496" on="0"/>
        <pt x="324" y="441" on="0"/>
        <pt x="264" y="352" on="0"/>
        <pt x="264" y="300" on="1"/>
        <pt x="264" y="252" on="0"/>
        <pt x="309" y="175" on="0"/>
        <pt x="400" y="130" on="0"/>
        <pt x="470" y="130" on="1"/>
        <pt x="524" y="130" on="0"/>
        <pt x="637" y="171" on="0"/>
        <pt x="732" y="236" on="0"/>
        <pt x="791" y="308" on="0"/>
        <pt x="792" y="339" on="1"/>
        <pt x="888" y="195" on="1"/>
        <pt x="861" y="146" on="0"/>
        <pt x="744" y="46" on="0"/>
        <pt x="561" y="-21" on="0"/>
        <pt x="434" y="-21" on="1"/>
        <pt x="320" y="-21" on="0"/>
        <pt x="161" y="59" on="0"/>
        <pt x="79" y="206" on="0"/>
        <pt x="79" y="304" on="1"/>
        <pt x="79" y="383" on="0"/>
        <pt x="136" y="506" on="0"/>
        <pt x="249" y="591" on="0"/>
        <pt x="417" y="636" on="0"/>
        <pt x="527" y="636" on="1"/>
      </contour>
      <contour>
        <pt x="1263" y="-21" on="1"/>
        <pt x="1140" y="-21" on="0"/>
        <pt x="952" y="59" on="0"/>
        <pt x="824" y="204" on="0"/>
        <pt x="758" y="402" on="0"/>
        <pt x="758" y="520" on="1"/>
        <pt x="758" y="564" on="1"/>
        <pt x="758" y="683" on="0"/>
        <pt x="827" y="880" on="0"/>
        <pt x="952" y="1024" on="0"/>
        <pt x="1120" y="1103" on="0"/>
        <pt x="1219" y="1102" on="1"/>
        <pt x="1327" y="1102" on="0"/>
        <pt x="1492" y="1035" on="0"/>
        <pt x="1604" y="908" on="0"/>
        <pt x="1661" y="728" on="0"/>
        <pt x="1661" y="616" on="1"/>
        <pt x="1661" y="498" on="1"/>
        <pt x="857" y="498" on="1"/>
        <pt x="857" y="640" on="1"/>
        <pt x="1475" y="640" on="1"/>
        <pt x="1475" y="671" on="1"/>
        <pt x="1475" y="747" on="0"/>
        <pt x="1425" y="873" on="0"/>
        <pt x="1313" y="950" on="0"/>
        <pt x="1219" y="950" on="1"/>
        <pt x="1150" y="950" on="0"/>
        <pt x="1044" y="890" on="0"/>
        <pt x="971" y="784" on="0"/>
        <pt x="933" y="644" on="0"/>
        <pt x="933" y="564" on="1"/>
        <pt x="933" y="520" on="1"/>
        <pt x="933" y="439" on="0"/>
        <pt x="971" y="298" on="0"/>
        <pt x="1051" y="191" on="0"/>
        <pt x="1176" y="131" on="0"/>
        <pt x="1263" y="131" on="1"/>
        <pt x="1382" y="131" on="0"/>
        <pt x="1528" y="204" on="0"/>
        <pt x="1578" y="238" on="1"/>
        <pt x="1643" y="102" on="1"/>
        <pt x="1621" y="85" on="0"/>
        <pt x="1524" y="26" on="0"/>
        <pt x="1370" y="-21" on="0"/>
      </contour>
    </TTGlyph>
    <TTGlyph name="aeacute" xMin="79" yMin="-21" xMax="1661" yMax="1537">
      <component glyphName="ae" x="0" y="0" flags="0x204"/>
      <component glyphName="acute" x="634" y="1" flags="0x4"/>
    </TTGlyph>
    <TTGlyph name="b" xMin="140" yMin="-20" xMax="1057" yMax="1536">
      <contour>
        <pt x="140" y="1536" on="1"/>
        <pt x="326" y="1536" on="1"/>
        <pt x="326" y="210" on="1"/>
        <pt x="310" y="0" on="1"/>
        <pt x="140" y="0" on="1"/>
      </contour>
      <contour>
        <pt x="1057" y="550" on="1"/>
        <pt x="1057" y="529" on="1"/>
        <pt x="1057" y="411" on="0"/>
        <pt x="1001" y="210" on="0"/>
        <pt x="893" y="62" on="0"/>
        <pt x="737" y="-20" on="0"/>
        <pt x="636" y="-20" on="1"/>
        <pt x="533" y="-20" on="0"/>
        <pt x="378" y="51" on="0"/>
        <pt x="272" y="185" on="0"/>
        <pt x="209" y="375" on="0"/>
        <pt x="197" y="494" on="1"/>
        <pt x="197" y="586" on="1"/>
        <pt x="209" y="706" on="0"/>
        <pt x="272" y="896" on="0"/>
        <pt x="378" y="1031" on="0"/>
        <pt x="532" y="1102" on="0"/>
        <pt x="634" y="1102" on="1"/>
        <pt x="736" y="1102" on="0"/>
        <pt x="894" y="1023" on="0"/>
        <pt x="1001" y="877" on="0"/>
        <pt x="1057" y="674" on="0"/>
      </contour>
      <contour>
        <pt x="871" y="529" on="1"/>
        <pt x="871" y="550" on="1"/>
        <pt x="871" y="631" on="0"/>
        <pt x="841" y="774" on="0"/>
        <pt x="775" y="883" on="0"/>
        <pt x="667" y="946" on="0"/>
        <pt x="588" y="946" on="1"/>
        <pt x="518" y="946" on="0"/>
        <pt x="415" y="898" on="0"/>
        <pt x="343" y="817" on="0"/>
        <pt x="298" y="714" on="0"/>
        <pt x="287" y="659" on="1"/>
        <pt x="287" y="418" on="1"/>
        <pt x="303" y="348" on="0"/>
        <pt x="376" y="219" on="0"/>
        <pt x="499" y="137" on="0"/>
        <pt x="590" y="137" on="1"/>
        <pt x="665" y="137" on="0"/>
        <pt x="772" y="198" on="0"/>
        <pt x="839" y="306" on="0"/>
        <pt x="871" y="448" on="0"/>
      </contour>
    </TTGlyph>
    <TTGlyph name="breve" xMin="130" yMin="1228" xMax="728" yMax="1495">
      <contour>
        <pt x="578" y="1495" on="1"/>
        <pt x="728" y="1495" on="1"/>
        <pt x="728" y="1417" on="0"/>
        <pt x="656" y="1296" on="0"/>
        <pt x="522" y="1228" on="0"/>
        <pt x="430" y="1228" on="1"/>
        <pt x="291" y="1228" on="0"/>
        <pt x="130" y="1377" on="0"/>
        <pt x="130" y="1495" on="1"/>
        <pt x="280" y="1495" on="1"/>
        <pt x="280" y="1436" on="0"/>
        <pt x="348" y="1346" on="0"/>
        <pt x="430" y="1346" on="1"/>
        <pt x="510" y="1346" on="0"/>
        <pt x="578" y="1436" on="0"/>
      </contour>
    </TTGlyph>
    <TTGlyph name="c" xMin="93" yMin="-20" xMax="1005" yMax="1102">
      <contour>
        <pt x="574" y="132" on="1"/>
        <pt x="640" y="132" on="0"/>
        <pt x="752" y="186" on="0"/>
        <pt x="824" y="281" on="0"/>
        <pt x="829" y="342" on="1"/>
        <pt x="1005" y="342" on="1"/>
        <pt x="1000" y="246" on="0"/>
        <pt x="881" y="81" on="0"/>
        <pt x="689" y="-20" on="0"/>
        <pt x="574" y="-20" on="1"/>
        <pt x="452" y="-20" on="0"/>
        <pt x="271" y="66" on="0"/>
        <pt x="152" y="216" on="0"/>
        <pt x="93" y="411" on="0"/>
        <pt x="93" y="520" on="1"/>
        <pt x="93" y="562" on="1"/>
        <pt x="93" y="671" on="0"/>
        <pt x="152" y="866" on="0"/>
        <pt x="271" y="1016" on="0"/>
        <pt x="452" y="1102" on="0"/>
        <pt x="574" y="1102" on="1"/>
        <pt x="701" y="1102" on="0"/>
        <pt x="891" y="999" on="0"/>
        <pt x="1000" y="822" on="0"/>
        <pt x="1005" y="710" on="1"/>
        <pt x="829" y="710" on="1"/>
        <pt x="824" y="777" on="0"/>
        <pt x="759" y="885" on="0"/>
        <pt x="648" y="950" on="0"/>
        <pt x="574" y="950" on="1"/>
        <pt x="489" y="950" on="0"/>
        <pt x="374" y="883" on="0"/>
        <pt x="307" y="770" on="0"/>
        <pt x="278" y="633" on="0"/>
        <pt x="278" y="562" on="1"/>
        <pt x="278" y="520" on="1"/>
        <pt x="278" y="449" on="0"/>
        <pt x="306" y="311" on="0"/>
        <pt x="373" y="199" on="0"/>
        <pt x="488" y="132" on="0"/>
      </contour>
    </TTGlyph>
    <TTGlyph name="caron" xMin="142" yMin="1251" xMax="760" yMax="1535">
      <contour>
        <pt x="298" y="1535" on="1"/>
        <pt x="449" y="1365" on="1"/>
        <pt x="600" y="1535" on="1"/>
        <pt x="760" y="1535" on="1"/>
        <pt x="760" y="1525" on="1"/>
        <pt x="506" y="1251" on="1"/>
        <pt x="392" y="1251" on="1"/>
        <pt x="142" y="1525" on="1"/>
        <pt x="142" y="1535" on="1"/>
      </contour>
    </TTGlyph>
    <TTGlyph name="colon" xMin="133" yMin="-12" xMax="364" yMax="1093">
      <component glyphName="period" x="-11" y="0" flags="0x4"/>
      <component glyphName="period" x="-10" y="883" flags="0x4"/>
    </TTGlyph>
    <TTGlyph name="comma" xMin="29" yMin="-291" xMax="309" yMax="220">
      <contour>
        <pt x="309" y="220" on="1"/>
        <pt x="309" y="71" on="1"/>
        <pt x="309" y="-20" on="0"/>
        <pt x="217" y="-223" on="0"/>
        <pt x="134" y="-291" on="1"/>
        <pt x="29" y="-218" on="1"/>
        <pt x="61" y="-174" on="0"/>
        <pt x="105" y="-83" on="0"/>
        <pt x="128" y="14" on="0"/>
        <pt x="128" y="68" on="1"/>
        <pt x="128" y="220" on="1"/>
      </contour>
    </TTGlyph>
    <TTGlyph name="d" xMin="95" yMin="-20" xMax="1009" yMax="1536">
      <contour>
        <pt x="823" y="210" on="1"/>
        <pt x="823" y="1536" on="1"/>
        <pt x="1009" y="1536" on="1"/>
        <pt x="1009" y="0" on="1"/>
        <pt x="839" y="0" on="1"/>
      </contour>
      <contour>
        <pt x="95" y="529" on="1"/>
        <pt x="95" y="550" on="1"/>
        <pt x="95" y="674" on="0"/>
        <pt x="156" y="877" on="0"/>
        <pt x="269" y="1023" on="0"/>
        <pt x="426" y="1102" on="0"/>
        <pt x="523" y="1102" on="1"/>
        <pt x="625" y="1102" on="0"/>
        <pt x="778" y="1031" on="0"/>
        <pt x="885" y="896" on="0"/>
        <pt x="947" y="706" on="0"/>
        <pt x="959" y="586" on="1"/>
        <pt x="959" y="494" on="1"/>
        <pt x="948" y="375" on="0"/>
        <pt x="885" y="185" on="0"/>
        <pt x="778" y="51" on="0"/>
        <pt x="624" y="-20" on="0"/>
        <pt x="521" y="-20" on="1"/>
        <pt x="426" y="-20" on="0"/>
        <pt x="269" y="62" on="0"/>
        <pt x="156" y="210" on="0"/>
        <pt x="95" y="411" on="0"/>
      </contour>
      <contour>
        <pt x="281" y="550" on="1"/>
        <pt x="281" y="529" on="1"/>
        <pt x="281" y="448" on="0"/>
        <pt x="314" y="306" on="0"/>
        <pt x="384" y="198" on="0"/>
        <pt x="492" y="137" on="0"/>
        <pt x="567" y="137" on="1"/>
        <pt x="659" y="137" on="0"/>
        <pt x="778" y="215" on="0"/>
        <pt x="850" y="343" on="0"/>
        <pt x="870" y="418" on="1"/>
        <pt x="870" y="659" on="1"/>
        <pt x="858" y="714" on="0"/>
        <pt x="813" y="817" on="0"/>
        <pt x="742" y="898" on="0"/>
        <pt x="639" y="946" on="0"/>
        <pt x="569" y="946" on="1"/>
        <pt x="493" y="946" on="0"/>
        <pt x="384" y="883" on="0"/>
        <pt x="314" y="774" on="0"/>
        <pt x="281" y="631" on="0"/>
      </contour>
    </TTGlyph>
    <TTGlyph name="dieresis" xMin="101" yMin="1265" xMax="751" yMax="1478">
      <contour>
        <pt x="101" y="1371" on="1"/>
        <pt x="101" y="1416" on="0"/>
        <pt x="157" y="1478" on="0"/>
        <pt x="210" y="1478" on="1"/>
        <pt x="264" y="1478" on="0"/>
        <pt x="320" y="1416" on="0"/>
        <pt x="320" y="1371" on="1"/>
        <pt x="320" y="1328" on="0"/>
        <pt x="264" y="1267" on="0"/>
        <pt x="210" y="1267" on="1"/>
        <pt x="157" y="1267" on="0"/>
        <pt x="101" y="1328" on="0"/>
      </contour>
      <contour>
        <pt x="532" y="1369" on="1"/>
        <pt x="532" y="1414" on="0"/>
        <pt x="587" y="1476" on="0"/>
        <pt x="641" y="1476" on="1"/>
        <pt x="694" y="1476" on="0"/>
        <pt x="751" y="1414" on="0"/>
        <pt x="751" y="1369" on="1"/>
        <pt x="751" y="1326" on="0"/>
        <pt x="694" y="1265" on="0"/>
        <pt x="641" y="1265" on="1"/>
        <pt x="587" y="1265" on="0"/>
        <pt x="532" y="1326" on="0"/>
      </contour>
    </TTGlyph>
    <TTGlyph name="dotbelowcomb" xMin="-712" yMin="-350" xMax="-493" yMax="-139">
      <contour>
        <pt x="-712" y="-246" on="1"/>
        <pt x="-712" y="-201" on="0"/>
        <pt x="-657" y="-139" on="0"/>
        <pt x="-603" y="-139" on="1"/>
        <pt x="-550" y="-139" on="0"/>
        <pt x="-493" y="-201" on="0"/>
        <pt x="-493" y="-246" on="1"/>
        <pt x="-493" y="-289" on="0"/>
        <pt x="-550" y="-350" on="0"/>
        <pt x="-603" y="-350" on="1"/>
        <pt x="-657" y="-350" on="0"/>
        <pt x="-712" y="-289" on="0"/>
      </contour>
    </TTGlyph>
    <TTGlyph name="dotlessi" xMin="156" yMin="0" xMax="341" yMax="1082">
      <contour>
        <pt x="341" y="1082" on="1"/>
        <pt x="341" y="0" on="1"/>
        <pt x="156" y="0" on="1"/>
        <pt x="156" y="1082" on="1"/>
      </contour>
    </TTGlyph>
    <TTGlyph name="e" xMin="93" yMin="-20" xMax="1011" yMax="1102">
      <contour>
        <pt x="590" y="-20" on="1"/>
        <pt x="477" y="-20" on="0"/>
        <pt x="294" y="57" on="0"/>
        <pt x="163" y="197" on="0"/>
        <pt x="93" y="389" on="0"/>
        <pt x="93" y="503" on="1"/>
        <pt x="93" y="545" on="1"/>
        <pt x="93" y="677" on="0"/>
        <pt x="171" y="884" on="0"/>
        <pt x="305" y="1028" on="0"/>
        <pt x="475" y="1102" on="0"/>
        <pt x="566" y="1102" on="1"/>
        <pt x="682" y="1102" on="0"/>
        <pt x="851" y="1022" on="0"/>
        <pt x="959" y="879" on="0"/>
        <pt x="1011" y="686" on="0"/>
        <pt x="1011" y="572" on="1"/>
        <pt x="1011" y="489" on="1"/>
        <pt x="203" y="489" on="1"/>
        <pt x="203" y="640" on="1"/>
        <pt x="826" y="640" on="1"/>
        <pt x="826" y="654" on="1"/>
        <pt x="822" y="726" on="0"/>
        <pt x="771" y="862" on="0"/>
        <pt x="661" y="950" on="0"/>
        <pt x="566" y="950" on="1"/>
        <pt x="503" y="950" on="0"/>
        <pt x="397" y="897" on="0"/>
        <pt x="321" y="793" on="0"/>
        <pt x="279" y="643" on="0"/>
        <pt x="279" y="545" on="1"/>
        <pt x="279" y="503" on="1"/>
        <pt x="279" y="426" on="0"/>
        <pt x="322" y="291" on="0"/>
        <pt x="405" y="189" on="0"/>
        <pt x="524" y="131" on="0"/>
        <pt x="600" y="131" on="1"/>
        <pt x="698" y="131" on="0"/>
        <pt x="834" y="211" on="0"/>
        <pt x="885" y="278" on="1"/>
        <pt x="997" y="189" on="1"/>
        <pt x="962" y="136" on="0"/>
        <pt x="854" y="40" on="0"/>
        <pt x="697" y="-20" on="0"/>
      </contour>
    </TTGlyph>
    <TTGlyph name="edieresis" xMin="93" yMin="-20" xMax="1011" yMax="1478">
      <component glyphName="e" x="0" y="0" flags="0x204"/>
      <component glyphName="dieresis" x="142" y="0" flags="0x4"/>
    </TTGlyph>
    <TTGlyph name="eight" xMin="113" yMin="-20" xMax="1039" yMax="1476">
      <contour>
        <pt x="1039" y="394" on="1"/>
        <pt x="1039" y="261" on="0"/>
        <pt x="916" y="76" on="0"/>
        <pt x="707" y="-20" on="0"/>
        <pt x="576" y="-20" on="1"/>
        <pt x="445" y="-20" on="0"/>
        <pt x="235" y="76" on="0"/>
        <pt x="113" y="261" on="0"/>
        <pt x="113" y="394" on="1"/>
        <pt x="113" y="481" on="0"/>
        <pt x="180" y="626" on="0"/>
        <pt x="303" y="734" on="0"/>
        <pt x="472" y="793" on="0"/>
        <pt x="574" y="793" on="1"/>
        <pt x="708" y="793" on="0"/>
        <pt x="918" y="690" on="0"/>
        <pt x="1039" y="510" on="0"/>
      </contour>
      <contour>
        <pt x="853" y="398" on="1"/>
        <pt x="853" y="479" on="0"/>
        <pt x="783" y="604" on="0"/>
        <pt x="657" y="674" on="0"/>
        <pt x="574" y="674" on="1"/>
        <pt x="489" y="674" on="0"/>
        <pt x="366" y="604" on="0"/>
        <pt x="298" y="479" on="0"/>
        <pt x="298" y="398" on="1"/>
        <pt x="298" y="314" on="0"/>
        <pt x="365" y="195" on="0"/>
        <pt x="490" y="132" on="0"/>
        <pt x="576" y="132" on="1"/>
        <pt x="662" y="132" on="0"/>
        <pt x="786" y="195" on="0"/>
        <pt x="853" y="314" on="0"/>
      </contour>
      <contour>
        <pt x="1005" y="1077" on="1"/>
        <pt x="1005" y="971" on="0"/>
        <pt x="893" y="801" on="0"/>
        <pt x="699" y="703" on="0"/>
        <pt x="576" y="703" on="1"/>
        <pt x="451" y="703" on="0"/>
        <pt x="256" y="801" on="0"/>
        <pt x="146" y="971" on="0"/>
        <pt x="146" y="1077" on="1"/>
        <pt x="146" y="1204" on="0"/>
        <pt x="257" y="1382" on="0"/>
        <pt x="451" y="1476" on="0"/>
        <pt x="575" y="1476" on="1"/>
        <pt x="700" y="1476" on="0"/>
        <pt x="894" y="1382" on="0"/>
        <pt x="1005" y="1204" on="0"/>
      </contour>
      <contour>
        <pt x="820" y="1074" on="1"/>
        <pt x="820" y="1147" on="0"/>
        <pt x="758" y="1259" on="0"/>
        <pt x="648" y="1324" on="0"/>
        <pt x="575" y="1324" on="1"/>
        <pt x="502" y="1324" on="0"/>
        <pt x="393" y="1263" on="0"/>
        <pt x="332" y="1151" on="0"/>
        <pt x="332" y="1074" on="1"/>
        <pt x="332" y="999" on="0"/>
        <pt x="393" y="887" on="0"/>
        <pt x="503" y="825" on="0"/>
        <pt x="576" y="825" on="1"/>
        <pt x="649" y="825" on="0"/>
        <pt x="758" y="887" on="0"/>
        <pt x="820" y="999" on="0"/>
      </contour>
    </TTGlyph>
    <TTGlyph name="equal" xMin="152" yMin="399" xMax="986" yMax="975">
      <contour>
        <pt x="986" y="975" on="1"/>
        <pt x="986" y="814" on="1"/>
        <pt x="152" y="814" on="1"/>
        <pt x="152" y="975" on="1"/>
      </contour>
      <contour>
        <pt x="986" y="560" on="1"/>
        <pt x="986" y="399" on="1"/>
        <pt x="152" y="399" on="1"/>
        <pt x="152" y="560" on="1"/>
      </contour>
    </TTGlyph>
    <TTGlyph name="exclam" xMin="161" yMin="-12" xMax="380" yMax="1456">
      <contour>
        <pt x="361" y="1456" on="1"/>
        <pt x="348" y="411" on="1"/>
        <pt x="181" y="411" on="1"/>
        <pt x="167" y="1456" on="1"/>
      </contour>
      <contour>
        <pt x="161" y="93" on="1"/>
        <pt x="161" y="138" on="0"/>
        <pt x="216" y="200" on="0"/>
        <pt x="270" y="200" on="1"/>
        <pt x="323" y="200" on="0"/>
        <pt x="380" y="138" on="0"/>
        <pt x="380" y="93" on="1"/>
        <pt x="380" y="50" on="0"/>
        <pt x="323" y="-12" on="0"/>
        <pt x="270" y="-12" on="1"/>
        <pt x="216" y="-12" on="0"/>
        <pt x="161" y="50" on="0"/>
      </contour>
    </TTGlyph>
    <TTGlyph name="f" xMin="61" yMin="0" xMax="715" yMax="1557">
      <contour>
        <pt x="417" y="0" on="1"/>
        <pt x="232" y="0" on="1"/>
        <pt x="232" y="1196" on="1"/>
        <pt x="232" y="1313" on="0"/>
        <pt x="317" y="1474" on="0"/>
        <pt x="477" y="1557" on="0"/>
        <pt x="587" y="1557" on="1"/>
        <pt x="619" y="1557" on="0"/>
        <pt x="684" y="1549" on="0"/>
        <pt x="715" y="1541" on="1"/>
        <pt x="705" y="1390" on="1"/>
        <pt x="684" y="1395" on="0"/>
        <pt x="631" y="1399" on="0"/>
        <pt x="605" y="1399" on="1"/>
        <pt x="546" y="1399" on="0"/>
        <pt x="461" y="1352" on="0"/>
        <pt x="417" y="1262" on="0"/>
        <pt x="417" y="1196" on="1"/>
      </contour>
      <contour>
        <pt x="647" y="1082" on="1"/>
        <pt x="647" y="940" on="1"/>
        <pt x="61" y="940" on="1"/>
        <pt x="61" y="1082" on="1"/>
      </contour>
    </TTGlyph>
    <TTGlyph name="five" xMin="154" yMin="-20" xMax="1070" yMax="1456">
      <contour>
        <pt x="355" y="693" on="1"/>
        <pt x="207" y="731" on="1"/>
        <pt x="280" y="1456" on="1"/>
        <pt x="1027" y="1456" on="1"/>
        <pt x="1027" y="1285" on="1"/>
        <pt x="437" y="1285" on="1"/>
        <pt x="393" y="889" on="1"/>
        <pt x="433" y="912" on="0"/>
        <pt x="556" y="952" on="0"/>
        <pt x="636" y="952" on="1"/>
        <pt x="737" y="952" on="0"/>
        <pt x="897" y="883" on="0"/>
        <pt x="1010" y="755" on="0"/>
        <pt x="1070" y="575" on="0"/>
        <pt x="1070" y="464" on="1"/>
        <pt x="1070" y="359" on="0"/>
        <pt x="1013" y="183" on="0"/>
        <pt x="899" y="52" on="0"/>
        <pt x="726" y="-20" on="0"/>
        <pt x="609" y="-20" on="1"/>
        <pt x="521" y="-20" on="0"/>
        <pt x="364" y="29" on="0"/>
        <pt x="241" y="130" on="0"/>
        <pt x="164" y="281" on="0"/>
        <pt x="154" y="383" on="1"/>
        <pt x="330" y="383" on="1"/>
        <pt x="342" y="301" on="0"/>
        <pt x="414" y="189" on="0"/>
        <pt x="531" y="132" on="0"/>
        <pt x="609" y="132" on="1"/>
        <pt x="675" y="132" on="0"/>
        <pt x="777" y="178" on="0"/>
        <pt x="847" y="264" on="0"/>
        <pt x="884" y="386" on="0"/>
        <pt x="884" y="462" on="1"/>
        <pt x="884" y="531" on="0"/>
        <pt x="846" y="649" on="0"/>
        <pt x="771" y="737" on="0"/>
        <pt x="663" y="786" on="0"/>
        <pt x="593" y="786" on="1"/>
        <pt x="500" y="786" on="0"/>
        <pt x="405" y="736" on="0"/>
      </contour>
    </TTGlyph>
    <TTGlyph name="four" xMin="53" yMin="0" xMax="1105" yMax="1456">
      <contour>
        <pt x="1105" y="490" on="1"/>
        <pt x="1105" y="338" on="1"/>
        <pt x="53" y="338" on="1"/>
        <pt x="53" y="447" on="1"/>
        <pt x="705" y="1456" on="1"/>
        <pt x="856" y="1456" on="1"/>
        <pt x="694" y="1164" on="1"/>
        <pt x="263" y="490" on="1"/>
      </contour>
      <contour>
        <pt x="902" y="1456" on="1"/>
        <pt x="902" y="0" on="1"/>
        <pt x="717" y="0" on="1"/>
        <pt x="717" y="1456" on="1"/>
      </contour>
    </TTGlyph>
    <TTGlyph name="fraction" xMin="60" yMin="111" xMax="875" yMax="1315">
      <contour>
        <pt x="875" y="1249" on="1"/>
        <pt x="164" y="111" on="1"/>
        <pt x="60" y="177" on="1"/>
        <pt x="771" y="1315" on="1"/>
      </contour>
    </TTGlyph>
    <TTGlyph name="g" xMin="97" yMin="-427" xMax="1010" yMax="1102">
      <contour>
        <pt x="842" y="1082" on="1"/>
        <pt x="1010" y="1082" on="1"/>
        <pt x="1010" y="23" on="1"/>
        <pt x="1010" y="-120" on="0"/>
        <pt x="894" y="-322" on="0"/>
        <pt x="687" y="-427" on="0"/>
        <pt x="552" y="-427" on="1"/>
        <pt x="496" y="-427" on="0"/>
        <pt x="345" y="-392" on="0"/>
        <pt x="200" y="-309" on="0"/>
        <pt x="151" y="-239" on="1"/>
        <pt x="248" y="-129" on="1"/>
        <pt x="316" y="-211" on="0"/>
        <pt x="465" y="-275" on="0"/>
        <pt x="538" y="-275" on="1"/>
        <pt x="626" y="-275" on="0"/>
        <pt x="754" y="-209" on="0"/>
        <pt x="825" y="-80" on="0"/>
        <pt x="825" y="14" on="1"/>
        <pt x="825" y="844" on="1"/>
      </contour>
      <contour>
        <pt x="97" y="529" on="1"/>
        <pt x="97" y="550" on="1"/>
        <pt x="97" y="674" on="0"/>
        <pt x="156" y="877" on="0"/>
        <pt x="267" y="1023" on="0"/>
        <pt x="425" y="1102" on="0"/>
        <pt x="524" y="1102" on="1"/>
        <pt x="626" y="1102" on="0"/>
        <pt x="779" y="1031" on="0"/>
        <pt x="886" y="896" on="0"/>
        <pt x="948" y="706" on="0"/>
        <pt x="960" y="586" on="1"/>
        <pt x="960" y="494" on="1"/>
        <pt x="949" y="375" on="0"/>
        <pt x="886" y="185" on="0"/>
        <pt x="779" y="51" on="0"/>
        <pt x="625" y="-20" on="0"/>
        <pt x="522" y="-20" on="1"/>
        <pt x="425" y="-20" on="0"/>
        <pt x="268" y="62" on="0"/>
        <pt x="156" y="210" on="0"/>
        <pt x="97" y="411" on="0"/>
      </contour>
      <contour>
        <pt x="282" y="550" on="1"/>
        <pt x="282" y="529" on="1"/>
        <pt x="282" y="448" on="0"/>
        <pt x="315" y="306" on="0"/>
        <pt x="384" y="198" on="0"/>
        <pt x="492" y="137" on="0"/>
        <pt x="567" y="137" on="1"/>
        <pt x="659" y="137" on="0"/>
        <pt x="779" y="215" on="0"/>
        <pt x="850" y="343" on="0"/>
        <pt x="870" y="418" on="1"/>
        <pt x="870" y="659" on="1"/>
        <pt x="859" y="714" on="0"/>
        <pt x="814" y="817" on="0"/>
        <pt x="743" y="898" on="0"/>
        <pt x="639" y="946" on="0"/>
        <pt x="569" y="946" on="1"/>
        <pt x="493" y="946" on="0"/>
        <pt x="384" y="883" on="0"/>
        <pt x="315" y="774" on="0"/>
        <pt x="282" y="631" on="0"/>
      </contour>
    </TTGlyph>
    <TTGlyph name="glyph00480" xMin="66" yMin="0" xMax="683" yMax="800">
      <contour>
        <pt x="683" y="128" on="1"/>
        <pt x="683" y="0" on="1"/>
        <pt x="85" y="0" on="1"/>
        <pt x="85" y="108" on="1"/>
        <pt x="373" y="379" on="1"/>
        <pt x="418" y="421" on="0"/>
        <pt x="470" y="487" on="0"/>
        <pt x="493" y="540" on="0"/>
        <pt x="493" y="562" on="1"/>
        <pt x="493" y="610" on="0"/>
        <pt x="429" y="672" on="0"/>
        <pt x="370" y="672" on="1"/>
        <pt x="295" y="672" on="0"/>
        <pt x="224" y="596" on="0"/>
        <pt x="224" y="539" on="1"/>
        <pt x="66" y="539" on="1"/>
        <pt x="66" y="611" on="0"/>
        <pt x="138" y="729" on="0"/>
        <pt x="272" y="800" on="0"/>
        <pt x="366" y="800" on="1"/>
        <pt x="456" y="800" on="0"/>
        <pt x="584" y="742" on="0"/>
        <pt x="652" y="637" on="0"/>
        <pt x="652" y="564" on="1"/>
        <pt x="652" y="511" on="0"/>
        <pt x="605" y="419" on="0"/>
        <pt x="519" y="327" on="0"/>
        <pt x="460" y="274" on="1"/>
        <pt x="285" y="128" on="1"/>
      </contour>
    </TTGlyph>
    <TTGlyph name="glyph00481" xMin="123" yMin="0" xMax="495" yMax="789">
      <contour>
        <pt x="495" y="789" on="1"/>
        <pt x="495" y="0" on="1"/>
        <pt x="339" y="0" on="1"/>
        <pt x="339" y="601" on="1"/>
        <pt x="123" y="544" on="1"/>
        <pt x="123" y="673" on="1"/>
        <pt x="477" y="789" on="1"/>
      </contour>
    </TTGlyph>
    <TTGlyph name="glyph00482" xMin="81" yMin="-11" xMax="670" yMax="800">
      <contour>
        <pt x="670" y="464" on="1"/>
        <pt x="670" y="325" on="1"/>
        <pt x="670" y="211" on="0"/>
        <pt x="597" y="62" on="0"/>
        <pt x="465" y="-11" on="0"/>
        <pt x="377" y="-11" on="1"/>
        <pt x="288" y="-11" on="0"/>
        <pt x="155" y="62" on="0"/>
        <pt x="81" y="211" on="0"/>
        <pt x="81" y="325" on="1"/>
        <pt x="81" y="464" on="1"/>
        <pt x="81" y="578" on="0"/>
        <pt x="154" y="727" on="0"/>
        <pt x="287" y="800" on="0"/>
        <pt x="375" y="800" on="1"/>
        <pt x="464" y="800" on="0"/>
        <pt x="596" y="727" on="0"/>
        <pt x="670" y="578" on="0"/>
      </contour>
      <contour>
        <pt x="512" y="312" on="1"/>
        <pt x="512" y="478" on="1"/>
        <pt x="512" y="545" on="0"/>
        <pt x="480" y="630" on="0"/>
        <pt x="419" y="671" on="0"/>
        <pt x="375" y="671" on="1"/>
        <pt x="331" y="671" on="0"/>
        <pt x="270" y="630" on="0"/>
        <pt x="238" y="545" on="0"/>
        <pt x="238" y="478" on="1"/>
        <pt x="238" y="312" on="1"/>
        <pt x="238" y="245" on="0"/>
        <pt x="270" y="159" on="0"/>
        <pt x="333" y="117" on="0"/>
        <pt x="377" y="117" on="1"/>
        <pt x="421" y="117" on="0"/>
        <pt x="481" y="159" on="0"/>
        <pt x="512" y="245" on="0"/>
      </contour>
    </TTGlyph>
    <TTGlyph name="glyph00570" xMin="63" yMin="-11" xMax="667" yMax="800">
      <contour>
        <pt x="266" y="459" on="1"/>
        <pt x="350" y="459" on="1"/>
        <pt x="399" y="459" on="0"/>
        <pt x="463" y="487" on="0"/>
        <pt x="496" y="536" on="0"/>
        <pt x="496" y="568" on="1"/>
        <pt x="496" y="612" on="0"/>
        <pt x="432" y="672" on="0"/>
        <pt x="363" y="672" on="1"/>
        <pt x="306" y="672" on="0"/>
        <pt x="231" y="622" on="0"/>
        <pt x="231" y="579" on="1"/>
        <pt x="74" y="579" on="1"/>
        <pt x="74" y="647" on="0"/>
        <pt x="150" y="746" on="0"/>
        <pt x="280" y="800" on="0"/>
        <pt x="360" y="800" on="1"/>
        <pt x="447" y="800" on="0"/>
        <pt x="579" y="749" on="0"/>
        <pt x="653" y="649" on="0"/>
        <pt x="653" y="576" on="1"/>
        <pt x="653" y="523" on="0"/>
        <pt x="588" y="434" on="0"/>
        <pt x="465" y="381" on="0"/>
        <pt x="377" y="381" on="1"/>
        <pt x="266" y="381" on="1"/>
      </contour>
      <contour>
        <pt x="266" y="344" on="1"/>
        <pt x="266" y="422" on="1"/>
        <pt x="377" y="422" on="1"/>
        <pt x="477" y="422" on="0"/>
        <pt x="605" y="374" on="0"/>
        <pt x="667" y="284" on="0"/>
        <pt x="667" y="220" on="1"/>
        <pt x="667" y="147" on="0"/>
        <pt x="587" y="43" on="0"/>
        <pt x="448" y="-11" on="0"/>
        <pt x="361" y="-11" on="1"/>
        <pt x="286" y="-11" on="0"/>
        <pt x="149" y="38" on="0"/>
        <pt x="63" y="142" on="0"/>
        <pt x="63" y="223" on="1"/>
        <pt x="220" y="223" on="1"/>
        <pt x="220" y="178" on="0"/>
        <pt x="300" y="117" on="0"/>
        <pt x="366" y="117" on="1"/>
        <pt x="436" y="117" on="0"/>
        <pt x="509" y="179" on="0"/>
        <pt x="509" y="228" on="1"/>
        <pt x="509" y="270" on="0"/>
        <pt x="470" y="321" on="0"/>
        <pt x="399" y="344" on="0"/>
        <pt x="350" y="344" on="1"/>
      </contour>
    </TTGlyph>
    <TTGlyph name="glyph00571" xMin="54" yMin="0" xMax="700" yMax="789">
      <contour>
        <pt x="700" y="300" on="1"/>
        <pt x="700" y="170" on="1"/>
        <pt x="61" y="170" on="1"/>
        <pt x="54" y="272" on="1"/>
        <pt x="432" y="789" on="1"/>
        <pt x="556" y="789" on="1"/>
        <pt x="419" y="560" on="1"/>
        <pt x="212" y="300" on="1"/>
      </contour>
      <contour>
        <pt x="592" y="789" on="1"/>
        <pt x="592" y="0" on="1"/>
        <pt x="435" y="0" on="1"/>
        <pt x="435" y="789" on="1"/>
      </contour>
    </TTGlyph>
    <TTGlyph name="glyph00572" xMin="92" yMin="-11" xMax="680" yMax="789">
      <contour>
        <pt x="238" y="356" on="1"/>
        <pt x="113" y="388" on="1"/>
        <pt x="162" y="789" on="1"/>
        <pt x="641" y="789" on="1"/>
        <pt x="641" y="658" on="1"/>
        <pt x="292" y="658" on="1"/>
        <pt x="269" y="487" on="1"/>
        <pt x="288" y="495" on="0"/>
        <pt x="363" y="517" on="0"/>
        <pt x="409" y="517" on="1"/>
        <pt x="494" y="517" on="0"/>
        <pt x="615" y="455" on="0"/>
        <pt x="680" y="339" on="0"/>
        <pt x="680" y="258" on="1"/>
        <pt x="680" y="187" on="0"/>
        <pt x="616" y="64" on="0"/>
        <pt x="486" y="-11" on="0"/>
        <pt x="386" y="-11" on="1"/>
        <pt x="312" y="-11" on="0"/>
        <pt x="180" y="42" on="0"/>
        <pt x="96" y="144" on="0"/>
        <pt x="92" y="216" on="1"/>
        <pt x="247" y="216" on="1"/>
        <pt x="252" y="165" on="0"/>
        <pt x="328" y="117" on="0"/>
        <pt x="386" y="117" on="1"/>
        <pt x="459" y="117" on="0"/>
        <pt x="522" y="199" on="0"/>
        <pt x="522" y="260" on="1"/>
        <pt x="522" y="322" on="0"/>
        <pt x="444" y="400" on="0"/>
        <pt x="371" y="400" on="1"/>
        <pt x="316" y="400" on="0"/>
        <pt x="260" y="372" on="0"/>
      </contour>
    </TTGlyph>
    <TTGlyph name="glyph00573" xMin="86" yMin="-11" xMax="684" yMax="799">
      <contour>
        <pt x="531" y="799" on="1"/>
        <pt x="553" y="799" on="1"/>
        <pt x="553" y="668" on="1"/>
        <pt x="542" y="668" on="1"/>
        <pt x="444" y="668" on="0"/>
        <pt x="310" y="611" on="0"/>
        <pt x="243" y="493" on="0"/>
        <pt x="243" y="403" on="1"/>
        <pt x="243" y="287" on="1"/>
        <pt x="243" y="231" on="0"/>
        <pt x="281" y="155" on="0"/>
        <pt x="347" y="117" on="0"/>
        <pt x="389" y="117" on="1"/>
        <pt x="431" y="117" on="0"/>
        <pt x="493" y="155" on="0"/>
        <pt x="527" y="219" on="0"/>
        <pt x="527" y="259" on="1"/>
        <pt x="527" y="321" on="0"/>
        <pt x="456" y="396" on="0"/>
        <pt x="388" y="396" on="1"/>
        <pt x="345" y="396" on="0"/>
        <pt x="275" y="363" on="0"/>
        <pt x="233" y="311" on="0"/>
        <pt x="231" y="283" on="1"/>
        <pt x="189" y="330" on="1"/>
        <pt x="192" y="373" on="0"/>
        <pt x="251" y="462" on="0"/>
        <pt x="358" y="524" on="0"/>
        <pt x="430" y="524" on="1"/>
        <pt x="515" y="524" on="0"/>
        <pt x="628" y="454" on="0"/>
        <pt x="684" y="334" on="0"/>
        <pt x="684" y="260" on="1"/>
        <pt x="684" y="183" on="0"/>
        <pt x="613" y="60" on="0"/>
        <pt x="482" y="-11" on="0"/>
        <pt x="392" y="-11" on="1"/>
        <pt x="298" y="-11" on="0"/>
        <pt x="161" y="66" on="0"/>
        <pt x="86" y="207" on="0"/>
        <pt x="86" y="303" on="1"/>
        <pt x="86" y="358" on="1"/>
        <pt x="86" y="462" on="0"/>
        <pt x="143" y="625" on="0"/>
        <pt x="256" y="739" on="0"/>
        <pt x="422" y="799" on="0"/>
      </contour>
    </TTGlyph>
    <TTGlyph name="glyph00574" xMin="59" yMin="0" xMax="678" yMax="789">
      <contour>
        <pt x="678" y="789" on="1"/>
        <pt x="678" y="699" on="1"/>
        <pt x="328" y="0" on="1"/>
        <pt x="162" y="0" on="1"/>
        <pt x="512" y="660" on="1"/>
        <pt x="59" y="660" on="1"/>
        <pt x="59" y="789" on="1"/>
      </contour>
    </TTGlyph>
    <TTGlyph name="glyph00575" xMin="79" yMin="-11" xMax="671" yMax="800">
      <contour>
        <pt x="671" y="216" on="1"/>
        <pt x="671" y="141" on="0"/>
        <pt x="594" y="40" on="0"/>
        <pt x="460" y="-11" on="0"/>
        <pt x="376" y="-11" on="1"/>
        <pt x="292" y="-11" on="0"/>
        <pt x="158" y="40" on="0"/>
        <pt x="79" y="141" on="0"/>
        <pt x="79" y="216" on="1"/>
        <pt x="79" y="284" on="0"/>
        <pt x="156" y="382" on="0"/>
        <pt x="290" y="436" on="0"/>
        <pt x="375" y="436" on="1"/>
        <pt x="460" y="436" on="0"/>
        <pt x="594" y="382" on="0"/>
        <pt x="671" y="284" on="0"/>
      </contour>
      <contour>
        <pt x="515" y="228" on="1"/>
        <pt x="515" y="263" on="0"/>
        <pt x="479" y="312" on="0"/>
        <pt x="416" y="339" on="0"/>
        <pt x="375" y="339" on="1"/>
        <pt x="333" y="339" on="0"/>
        <pt x="271" y="312" on="0"/>
        <pt x="237" y="263" on="0"/>
        <pt x="237" y="228" on="1"/>
        <pt x="237" y="194" on="0"/>
        <pt x="271" y="144" on="0"/>
        <pt x="334" y="117" on="0"/>
        <pt x="376" y="117" on="1"/>
        <pt x="417" y="117" on="0"/>
        <pt x="480" y="144" on="0"/>
        <pt x="515" y="194" on="0"/>
      </contour>
      <contour>
        <pt x="652" y="580" on="1"/>
        <pt x="652" y="518" on="0"/>
        <pt x="581" y="425" on="0"/>
        <pt x="457" y="374" on="0"/>
        <pt x="376" y="374" on="1"/>
        <pt x="295" y="374" on="0"/>
        <pt x="170" y="425" on="0"/>
        <pt x="99" y="518" on="0"/>
        <pt x="99" y="580" on="1"/>
        <pt x="99" y="651" on="0"/>
        <pt x="170" y="749" on="0"/>
        <pt x="295" y="800" on="0"/>
        <pt x="375" y="800" on="1"/>
        <pt x="455" y="800" on="0"/>
        <pt x="580" y="749" on="0"/>
        <pt x="652" y="651" on="0"/>
      </contour>
      <contour>
        <pt x="494" y="570" on="1"/>
        <pt x="494" y="601" on="0"/>
        <pt x="465" y="646" on="0"/>
        <pt x="412" y="672" on="0"/>
        <pt x="375" y="672" on="1"/>
        <pt x="320" y="672" on="0"/>
        <pt x="256" y="618" on="0"/>
        <pt x="256" y="570" on="1"/>
        <pt x="256" y="540" on="0"/>
        <pt x="285" y="494" on="0"/>
        <pt x="339" y="468" on="0"/>
        <pt x="376" y="468" on="1"/>
        <pt x="431" y="468" on="0"/>
        <pt x="494" y="524" on="0"/>
      </contour>
    </TTGlyph>
    <TTGlyph name="glyph00576" xMin="74" yMin="-7" xMax="661" yMax="800">
      <contour>
        <pt x="209" y="120" on="1"/>
        <pt x="223" y="120" on="1"/>
        <pt x="323" y="120" on="0"/>
        <pt x="447" y="172" on="0"/>
        <pt x="505" y="280" on="0"/>
        <pt x="505" y="362" on="1"/>
        <pt x="505" y="508" on="1"/>
        <pt x="505" y="563" on="0"/>
        <pt x="468" y="635" on="0"/>
        <pt x="406" y="671" on="0"/>
        <pt x="366" y="671" on="1"/>
        <pt x="324" y="671" on="0"/>
        <pt x="263" y="629" on="0"/>
        <pt x="230" y="560" on="0"/>
        <pt x="230" y="519" on="1"/>
        <pt x="230" y="479" on="0"/>
        <pt x="261" y="415" on="0"/>
        <pt x="323" y="377" on="0"/>
        <pt x="368" y="377" on="1"/>
        <pt x="413" y="377" on="0"/>
        <pt x="479" y="411" on="0"/>
        <pt x="516" y="463" on="0"/>
        <pt x="517" y="489" on="1"/>
        <pt x="564" y="444" on="1"/>
        <pt x="562" y="398" on="0"/>
        <pt x="502" y="311" on="0"/>
        <pt x="400" y="255" on="0"/>
        <pt x="333" y="255" on="1"/>
        <pt x="249" y="255" on="0"/>
        <pt x="133" y="322" on="0"/>
        <pt x="74" y="441" on="0"/>
        <pt x="74" y="519" on="1"/>
        <pt x="74" y="596" on="0"/>
        <pt x="145" y="723" on="0"/>
        <pt x="276" y="800" on="0"/>
        <pt x="366" y="800" on="1"/>
        <pt x="459" y="800" on="0"/>
        <pt x="591" y="723" on="0"/>
        <pt x="661" y="579" on="0"/>
        <pt x="661" y="478" on="1"/>
        <pt x="661" y="427" on="1"/>
        <pt x="661" y="322" on="0"/>
        <pt x="609" y="161" on="0"/>
        <pt x="501" y="50" on="0"/>
        <pt x="337" y="-7" on="0"/>
        <pt x="224" y="-7" on="1"/>
        <pt x="209" y="-7" on="1"/>
      </contour>
    </TTGlyph>
    <TTGlyph name="glyph00577" xMin="143" yMin="651" xMax="780" yMax="803">
      <contour>
        <pt x="780" y="803" on="1"/>
        <pt x="780" y="651" on="1"/>
        <pt x="143" y="651" on="1"/>
        <pt x="143" y="803" on="1"/>
      </contour>
    </TTGlyph>
    <TTGlyph name="glyph00601" xMin="81" yMin="653" xMax="670" yMax="1464">
      <component glyphName="glyph00482" x="0" y="664" flags="0x204"/>
    </TTGlyph>
    <TTGlyph name="glyph00602" xMin="54" yMin="664" xMax="700" yMax="1453">
      <component glyphName="glyph00571" x="0" y="664" flags="0x204"/>
    </TTGlyph>
    <TTGlyph name="glyph00603" xMin="92" yMin="653" xMax="680" yMax="1453">
      <component glyphName="glyph00572" x="0" y="664" flags="0x204"/>
    </TTGlyph>
    <TTGlyph name="glyph00604" xMin="86" yMin="653" xMax="684" yMax="1463">
      <component glyphName="glyph00573" x="0" y="664" flags="0x204"/>
    </TTGlyph>
    <TTGlyph name="glyph00605" xMin="59" yMin="664" xMax="678" yMax="1453">
      <component glyphName="glyph00574" x="0" y="664" flags="0x204"/>
    </TTGlyph>
    <TTGlyph name="glyph00606" xMin="79" yMin="653" xMax="671" yMax="1464">
      <component glyphName="glyph00575" x="0" y="664" flags="0x204"/>
    </TTGlyph>
    <TTGlyph name="glyph00607" xMin="74" yMin="657" xMax="661" yMax="1464">
      <component glyphName="glyph00576" x="0" y="664" flags="0x204"/>
    </TTGlyph>
    <TTGlyph name="glyph00634" xMin="-76" yMin="-437" xMax="358" yMax="1082">
      <component glyphName="uni0237" x="0" y="0" flags="0x4"/>
    </TTGlyph>
    <TTGlyph name="glyph00636" xMin="156" yMin="0" xMax="341" yMax="1082">
      <component glyphName="dotlessi" x="0" y="0" flags="0x204"/>
    </TTGlyph>
    <TTGlyph name="glyph01218" xMin="169" yMin="-340" xMax="1160" yMax="1456">
      <component glyphName="B" x="0" y="0" flags="0x204"/>
      <component glyphName="dotbelowcomb" x="1210" y="10" flags="0x4"/>
    </TTGlyph>
    <TTGlyph name="glyph01219" xMin="140" yMin="-360" xMax="1057" yMax="1536">
      <component glyphName="b" x="0" y="0" flags="0x204"/>
      <component glyphName="dotbelowcomb" x="1195" y="-10" flags="0x4"/>
    </TTGlyph>
    <TTGlyph name="glyph01220" xMin="169" yMin="-340" xMax="1223" yMax="1456">
      <component glyphName="D" x="0" y="0" flags="0x204"/>
      <component glyphName="dotbelowcomb" x="1210" y="10" flags="0x4"/>
    </TTGlyph>
    <TTGlyph name="glyph01221" xMin="95" yMin="-350" xMax="1009" yMax="1536">
      <component glyphName="d" x="0" y="0" flags="0x204"/>
      <component glyphName="dotbelowcomb" x="1214" y="0" flags="0x4"/>
    </TTGlyph>
    <TTGlyph name="glyph01222" xMin="169" yMin="-506" xMax="1223" yMax="1456">
      <component glyphName="D" x="0" y="0" flags="0x204"/>
      <component glyphName="uniF6C3" x="357" y="-344" flags="0x4"/>
    </TTGlyph>
    <TTGlyph name="glyph01223" xMin="95" yMin="-516" xMax="1009" yMax="1536">
      <component glyphName="d" x="0" y="0" flags="0x204"/>
      <component glyphName="uniF6C3" x="361" y="-354" flags="0x4"/>
    </TTGlyph>
    <TTGlyph name="glyph01224" xMin="169" yMin="-340" xMax="1288" yMax="1456">
      <component glyphName="H" x="0" y="0" flags="0x204"/>
      <component glyphName="dotbelowcomb" x="1311" y="10" flags="0x4"/>
    </TTGlyph>
    <TTGlyph name="glyph01225" xMin="141" yMin="-340" xMax="992" yMax="1536">
      <component glyphName="h" x="0" y="0" flags="0x204"/>
      <component glyphName="dotbelowcomb" x="1185" y="10" flags="0x4"/>
    </TTGlyph>
    <TTGlyph name="glyph01228" xMin="169" yMin="-260" xMax="1285" yMax="1456">
      <component glyphName="K" x="0" y="0" flags="0x204"/>
      <component glyphName="dotbelowcomb" x="1257" y="90" flags="0x4"/>
    </TTGlyph>
    <TTGlyph name="glyph01229" xMin="141" yMin="-279" xMax="1037" yMax="1536">
      <component glyphName="k" x="0" y="0" flags="0x204"/>
      <component glyphName="dotbelowcomb" x="1126" y="71" flags="0x4"/>
    </TTGlyph>
    <TTGlyph name="glyph01230" xMin="169" yMin="-340" xMax="1052" yMax="1456">
      <component glyphName="L" x="0" y="0" flags="0x204"/>
      <component glyphName="dotbelowcomb" x="1217" y="10" flags="0x4"/>
    </TTGlyph>
    <TTGlyph name="glyph01231" xMin="134" yMin="-340" xMax="353" yMax="1536">
      <component glyphName="l" x="0" y="0" flags="0x204"/>
      <component glyphName="dotbelowcomb" x="846" y="10" flags="0x4"/>
    </TTGlyph>
    <TTGlyph name="glyph01232" xMin="169" yMin="-340" xMax="1618" yMax="1456">
      <component glyphName="M" x="0" y="0" flags="0x204"/>
      <component glyphName="dotbelowcomb" x="1490" y="10" flags="0x4"/>
    </TTGlyph>
    <TTGlyph name="glyph01233" xMin="139" yMin="-340" xMax="1657" yMax="1102">
      <component glyphName="m" x="0" y="0" flags="0x204"/>
      <component glyphName="dotbelowcomb" x="1494" y="10" flags="0x4"/>
    </TTGlyph>
    <TTGlyph name="glyph01234" xMin="169" yMin="-340" xMax="1289" yMax="1456">
      <component glyphName="N" x="0" y="0" flags="0x204"/>
      <component glyphName="dotbelowcomb" x="1317" y="10" flags="0x4"/>
    </TTGlyph>
    <TTGlyph name="glyph01235" xMin="141" yMin="-340" xMax="992" yMax="1102">
      <component glyphName="n" x="0" y="0" flags="0x204"/>
      <component glyphName="dotbelowcomb" x="1160" y="10" flags="0x4"/>
    </TTGlyph>
    <TTGlyph name="glyph01239" xMin="169" yMin="-340" xMax="1226" yMax="1456">
      <component glyphName="R" x="0" y="0" flags="0x204"/>
      <component glyphName="dotbelowcomb" x="1208" y="10" flags="0x4"/>
    </TTGlyph>
    <TTGlyph name="glyph01240" xMin="131" yMin="-339" xMax="664" yMax="1102">
      <component glyphName="r" x="0" y="0" flags="0x204"/>
      <component glyphName="dotbelowcomb" x="843" y="11" flags="0x4"/>
    </TTGlyph>
    <TTGlyph name="glyph01241" xMin="81" yMin="-351" xMax="1139" yMax="1476">
      <component glyphName="S" x="0" y="0" flags="0x204"/>
      <component glyphName="dotbelowcomb" x="1225" y="-1" flags="0x4"/>
    </TTGlyph>
    <TTGlyph name="glyph01242" xMin="95" yMin="-360" xMax="956" yMax="1102">
      <component glyphName="s" x="0" y="0" flags="0x204"/>
      <component glyphName="dotbelowcomb" x="1159" y="-10" flags="0x4"/>
    </TTGlyph>
    <TTGlyph name="glyph01243" xMin="50" yMin="-350" xMax="1175" yMax="1456">
      <component glyphName="T" x="0" y="0" flags="0x204"/>
      <component glyphName="dotbelowcomb" x="1211" y="0" flags="0x4"/>
    </TTGlyph>
    <TTGlyph name="glyph01244" xMin="9" yMin="-350" xMax="599" yMax="1345">
      <component glyphName="t" x="0" y="0" flags="0x204"/>
      <component glyphName="dotbelowcomb" x="1050" y="0" flags="0x4"/>
    </TTGlyph>
    <TTGlyph name="glyph01248" xMin="29" yMin="-340" xMax="1277" yMax="1456">
      <component glyphName="V" x="0" y="0" flags="0x204"/>
      <component glyphName="dotbelowcomb" x="1252" y="10" flags="0x4"/>
    </TTGlyph>
    <TTGlyph name="glyph01249" xMin="33" yMin="-340" xMax="955" yMax="1082">
      <component glyphName="v" x="0" y="0" flags="0x204"/>
      <component glyphName="dotbelowcomb" x="1101" y="10" flags="0x4"/>
    </TTGlyph>
    <TTGlyph name="glyph01250" xMin="61" yMin="-340" xMax="1773" yMax="1456">
      <component glyphName="W" x="0" y="0" flags="0x204"/>
      <component glyphName="dotbelowcomb" x="1519" y="10" flags="0x4"/>
    </TTGlyph>
    <TTGlyph name="glyph01251" xMin="43" yMin="-340" xMax="1491" yMax="1082">
      <component glyphName="w" x="0" y="0" flags="0x204"/>
      <component glyphName="dotbelowcomb" x="1363" y="10" flags="0x4"/>
    </TTGlyph>
    <TTGlyph name="glyph01252" xMin="87" yMin="-340" xMax="1146" yMax="1456">
      <component glyphName="Z" x="0" y="0" flags="0x204"/>
      <component glyphName="dotbelowcomb" x="1210" y="10" flags="0x4"/>
    </TTGlyph>
    <TTGlyph name="glyph01253" xMin="89" yMin="-340" xMax="947" yMax="1082">
      <component glyphName="z" x="0" y="0" flags="0x204"/>
      <component glyphName="dotbelowcomb" x="1123" y="10" flags="0x4"/>
    </TTGlyph>
    <TTGlyph name="glyph01321" xMin="134" yMin="-340" xMax="353" yMax="1082">
      <component glyphName="dotlessi" x="0" y="0" flags="0x204"/>
      <component glyphName="dotbelowcomb" x="846" y="10" flags="0x4"/>
    </TTGlyph>
    <TTGlyph name="grave" xMin="57" yMin="1242" xMax="474" yMax="1536">
      <contour>
        <pt x="281" y="1536" on="1"/>
        <pt x="474" y="1242" on="1"/>
        <pt x="315" y="1242" on="1"/>
        <pt x="57" y="1536" on="1"/>
      </contour>
    </TTGlyph>
    <TTGlyph name="h" xMin="141" yMin="0" xMax="992" yMax="1536">
      <contour>
        <pt x="326" y="1536" on="1"/>
        <pt x="326" y="0" on="1"/>
        <pt x="141" y="0" on="1"/>
        <pt x="141" y="1536" on="1"/>
      </contour>
      <contour>
        <pt x="282" y="582" on="1"/>
        <pt x="205" y="585" on="1"/>
        <pt x="206" y="696" on="0"/>
        <pt x="270" y="885" on="0"/>
        <pt x="386" y="1025" on="0"/>
        <pt x="547" y="1102" on="0"/>
        <pt x="645" y="1102" on="1"/>
        <pt x="725" y="1102" on="0"/>
        <pt x="853" y="1059" on="0"/>
        <pt x="944" y="965" on="0"/>
        <pt x="992" y="816" on="0"/>
        <pt x="992" y="709" on="1"/>
        <pt x="992" y="0" on="1"/>
        <pt x="806" y="0" on="1"/>
        <pt x="806" y="711" on="1"/>
        <pt x="806" y="796" on="0"/>
        <pt x="756" y="899" on="0"/>
        <pt x="660" y="946" on="0"/>
        <pt x="590" y="946" on="1"/>
        <pt x="521" y="946" on="0"/>
        <pt x="408" y="888" on="0"/>
        <pt x="327" y="786" on="0"/>
        <pt x="282" y="655" on="0"/>
      </contour>
    </TTGlyph>
    <TTGlyph name="hookabovecomb" xMin="-675" yMin="1242" xMax="-365" yMax="1652">
      <contour>
        <pt x="-520" y="1242" on="1"/>
        <pt x="-653" y="1242" on="1"/>
        <pt x="-654" y="1394" on="1"/>
        <pt x="-603" y="1397" on="0"/>
        <pt x="-539" y="1412" on="0"/>
        <pt x="-509" y="1443" on="0"/>
        <pt x="-509" y="1469" on="1"/>
        <pt x="-509" y="1490" on="0"/>
        <pt x="-535" y="1519" on="0"/>
        <pt x="-581" y="1538" on="0"/>
        <pt x="-641" y="1546" on="0"/>
        <pt x="-675" y="1546" on="1"/>
        <pt x="-668" y="1652" on="1"/>
        <pt x="-594" y="1652" on="0"/>
        <pt x="-481" y="1626" on="0"/>
        <pt x="-404" y="1576" on="0"/>
        <pt x="-365" y="1507" on="0"/>
        <pt x="-365" y="1465" on="1"/>
        <pt x="-365" y="1389" on="0"/>
        <pt x="-461" y="1320" on="0"/>
        <pt x="-519" y="1312" on="1"/>
      </contour>
    </TTGlyph>
    <TTGlyph name="hyphen" xMin="38" yMin="543" xMax="526" yMax="695">
      <contour>
        <pt x="526" y="695" on="1"/>
        <pt x="526" y="543" on="1"/>
        <pt x="38" y="543" on="1"/>
        <pt x="38" y="695" on="1"/>
      </contour>
    </TTGlyph>
    <TTGlyph name="i" xMin="142" yMin="0" xMax="361" yMax="1476">
      <contour>
        <pt x="342" y="1082" on="1"/>
        <pt x="342" y="0" on="1"/>
        <pt x="156" y="0" on="1"/>
        <pt x="156" y="1082" on="1"/>
      </contour>
      <contour>
        <pt x="142" y="1369" on="1"/>
        <pt x="142" y="1414" on="0"/>
        <pt x="197" y="1476" on="0"/>
        <pt x="251" y="1476" on="1"/>
        <pt x="304" y="1476" on="0"/>
        <pt x="361" y="1414" on="0"/>
        <pt x="361" y="1369" on="1"/>
        <pt x="361" y="1326" on="0"/>
        <pt x="304" y="1265" on="0"/>
        <pt x="251" y="1265" on="1"/>
        <pt x="197" y="1265" on="0"/>
        <pt x="142" y="1326" on="0"/>
      </contour>
    </TTGlyph>
    <TTGlyph name="iacute" xMin="150" yMin="0" xMax="567" yMax="1534">
      <component glyphName="dotlessi" x="0" y="0" flags="0x204"/>
      <component glyphName="acute" x="27" y="-2" flags="0x4"/>
    </TTGlyph>
    <TTGlyph name="igrave" xMin="-60" yMin="0" xMax="357" yMax="1534">
      <component glyphName="dotlessi" x="0" y="0" flags="0x204"/>
      <component glyphName="grave" x="-117" y="-2" flags="0x4"/>
    </TTGlyph>
    <TTGlyph name="itilde" xMin="-101" yMin="0" xMax="607" yMax="1514">
      <component glyphName="dotlessi" x="0" y="0" flags="0x204"/>
      <component glyphName="tilde" x="-224" y="2" flags="0x4"/>
    </TTGlyph>
    <TTGlyph name="j" xMin="-66" yMin="-437" xMax="346" yMax="1476">
      <contour>
        <pt x="146" y="1082" on="1"/>
        <pt x="332" y="1082" on="1"/>
        <pt x="332" y="-129" on="1"/>
        <pt x="332" y="-228" on="0"/>
        <pt x="269" y="-366" on="0"/>
        <pt x="144" y="-437" on="0"/>
        <pt x="49" y="-437" on="1"/>
        <pt x="24" y="-437" on="0"/>
        <pt x="-43" y="-427" on="0"/>
        <pt x="-66" y="-420" on="1"/>
        <pt x="-65" y="-271" on="1"/>
        <pt x="-46" y="-275" on="0"/>
        <pt x="2" y="-280" on="0"/>
        <pt x="20" y="-280" on="1"/>
        <pt x="61" y="-280" on="0"/>
        <pt x="117" y="-250" on="0"/>
        <pt x="146" y="-184" on="0"/>
        <pt x="146" y="-129" on="1"/>
      </contour>
      <contour>
        <pt x="127" y="1369" on="1"/>
        <pt x="127" y="1414" on="0"/>
        <pt x="183" y="1476" on="0"/>
        <pt x="236" y="1476" on="1"/>
        <pt x="290" y="1476" on="0"/>
        <pt x="346" y="1414" on="0"/>
        <pt x="346" y="1369" on="1"/>
        <pt x="346" y="1326" on="0"/>
        <pt x="290" y="1265" on="0"/>
        <pt x="236" y="1265" on="1"/>
        <pt x="183" y="1265" on="0"/>
        <pt x="127" y="1326" on="0"/>
      </contour>
    </TTGlyph>
    <TTGlyph name="k" xMin="141" yMin="0" xMax="1037" yMax="1536">
      <contour>
        <pt x="327" y="1536" on="1"/>
        <pt x="327" y="0" on="1"/>
        <pt x="141" y="0" on="1"/>
        <pt x="141" y="1536" on="1"/>
      </contour>
      <contour>
        <pt x="988" y="1082" on="1"/>
        <pt x="516" y="577" on="1"/>
        <pt x="252" y="303" on="1"/>
        <pt x="237" y="500" on="1"/>
        <pt x="426" y="726" on="1"/>
        <pt x="762" y="1082" on="1"/>
      </contour>
      <contour>
        <pt x="819" y="0" on="1"/>
        <pt x="433" y="516" on="1"/>
        <pt x="529" y="681" on="1"/>
        <pt x="1037" y="0" on="1"/>
      </contour>
    </TTGlyph>
    <TTGlyph name="l" xMin="156" yMin="0" xMax="342" yMax="1536">
      <contour>
        <pt x="342" y="1536" on="1"/>
        <pt x="342" y="0" on="1"/>
        <pt x="156" y="0" on="1"/>
        <pt x="156" y="1536" on="1"/>
      </contour>
    </TTGlyph>
    <TTGlyph name="m" xMin="139" yMin="0" xMax="1657" yMax="1102">
      <contour>
        <pt x="325" y="867" on="1"/>
        <pt x="325" y="0" on="1"/>
        <pt x="139" y="0" on="1"/>
        <pt x="139" y="1082" on="1"/>
        <pt x="315" y="1082" on="1"/>
      </contour>
      <contour>
        <pt x="287" y="582" on="1"/>
        <pt x="201" y="585" on="1"/>
        <pt x="202" y="696" on="0"/>
        <pt x="258" y="885" on="0"/>
        <pt x="368" y="1025" on="0"/>
        <pt x="532" y="1102" on="0"/>
        <pt x="640" y="1102" on="1"/>
        <pt x="716" y="1102" on="0"/>
        <pt x="844" y="1059" on="0"/>
        <pt x="938" y="967" on="0"/>
        <pt x="990" y="823" on="0"/>
        <pt x="990" y="721" on="1"/>
        <pt x="990" y="0" on="1"/>
        <pt x="805" y="0" on="1"/>
        <pt x="805" y="712" on="1"/>
        <pt x="805" y="797" on="0"/>
        <pt x="748" y="899" on="0"/>
        <pt x="644" y="946" on="0"/>
        <pt x="574" y="946" on="1"/>
        <pt x="492" y="946" on="0"/>
        <pt x="382" y="888" on="0"/>
        <pt x="316" y="786" on="0"/>
        <pt x="287" y="655" on="0"/>
      </contour>
      <contour>
        <pt x="988" y="684" on="1"/>
        <pt x="864" y="646" on="1"/>
        <pt x="865" y="735" on="0"/>
        <pt x="922" y="899" on="0"/>
        <pt x="1031" y="1027" on="0"/>
        <pt x="1191" y="1102" on="0"/>
        <pt x="1294" y="1102" on="1"/>
        <pt x="1381" y="1102" on="0"/>
        <pt x="1516" y="1056" on="0"/>
        <pt x="1609" y="961" on="0"/>
        <pt x="1657" y="813" on="0"/>
        <pt x="1657" y="711" on="1"/>
        <pt x="1657" y="0" on="1"/>
        <pt x="1471" y="0" on="1"/>
        <pt x="1471" y="713" on="1"/>
        <pt x="1471" y="804" on="0"/>
        <pt x="1414" y="905" on="0"/>
        <pt x="1311" y="946" on="0"/>
        <pt x="1240" y="946" on="1"/>
        <pt x="1179" y="946" on="0"/>
        <pt x="1085" y="904" on="0"/>
        <pt x="1021" y="831" on="0"/>
        <pt x="988" y="737" on="0"/>
      </contour>
    </TTGlyph>
    <TTGlyph name="mu" xMin="155" yMin="-416" xMax="1006" yMax="1082">
      <contour>
        <pt x="821" y="1082" on="1"/>
        <pt x="1006" y="1082" on="1"/>
        <pt x="1006" y="0" on="1"/>
        <pt x="839" y="0" on="1"/>
        <pt x="821" y="250" on="1"/>
      </contour>
      <contour>
        <pt x="854" y="503" on="1"/>
        <pt x="923" y="505" on="1"/>
        <pt x="923" y="391" on="0"/>
        <pt x="882" y="199" on="0"/>
        <pt x="796" y="57" on="0"/>
        <pt x="662" y="-21" on="0"/>
        <pt x="568" y="-21" on="1"/>
        <pt x="492" y="-21" on="0"/>
        <pt x="373" y="18" on="0"/>
        <pt x="288" y="103" on="0"/>
        <pt x="260" y="171" on="1"/>
        <pt x="223" y="460" on="1"/>
        <pt x="339" y="460" on="1"/>
        <pt x="339" y="357" on="0"/>
        <pt x="373" y="227" on="0"/>
        <pt x="434" y="157" on="0"/>
        <pt x="514" y="131" on="0"/>
        <pt x="560" y="131" on="1"/>
        <pt x="649" y="131" on="0"/>
        <pt x="764" y="186" on="0"/>
        <pt x="828" y="286" on="0"/>
        <pt x="854" y="422" on="0"/>
      </contour>
      <contour>
        <pt x="155" y="1082" on="1"/>
        <pt x="339" y="1082" on="1"/>
        <pt x="339" y="-416" on="1"/>
        <pt x="155" y="-416" on="1"/>
      </contour>
    </TTGlyph>
    <TTGlyph name="n" xMin="141" yMin="0" xMax="992" yMax="1102">
      <contour>
        <pt x="326" y="851" on="1"/>
        <pt x="326" y="0" on="1"/>
        <pt x="141" y="0" on="1"/>
        <pt x="141" y="1082" on="1"/>
        <pt x="316" y="1082" on="1"/>
      </contour>
      <contour>
        <pt x="282" y="582" on="1"/>
        <pt x="205" y="585" on="1"/>
        <pt x="206" y="696" on="0"/>
        <pt x="270" y="885" on="0"/>
        <pt x="386" y="1025" on="0"/>
        <pt x="547" y="1102" on="0"/>
        <pt x="645" y="1102" on="1"/>
        <pt x="725" y="1102" on="0"/>
        <pt x="853" y="1059" on="0"/>
        <pt x="944" y="965" on="0"/>
        <pt x="992" y="816" on="0"/>
        <pt x="992" y="709" on="1"/>
        <pt x="992" y="0" on="1"/>
        <pt x="806" y="0" on="1"/>
        <pt x="806" y="711" on="1"/>
        <pt x="806" y="796" on="0"/>
        <pt x="756" y="899" on="0"/>
        <pt x="660" y="946" on="0"/>
        <pt x="590" y="946" on="1"/>
        <pt x="521" y="946" on="0"/>
        <pt x="408" y="888" on="0"/>
        <pt x="327" y="786" on="0"/>
        <pt x="282" y="655" on="0"/>
      </contour>
    </TTGlyph>
    <TTGlyph name="nine" xMin="100" yMin="-2" xMax="1016" yMax="1476">
      <contour>
        <pt x="305" y="155" on="1"/>
        <pt x="324" y="155" on="1"/>
        <pt x="484" y="155" on="0"/>
        <pt x="684" y="245" on="0"/>
        <pt x="792" y="397" on="0"/>
        <pt x="832" y="588" on="0"/>
        <pt x="832" y="689" on="1"/>
        <pt x="832" y="912" on="1"/>
        <pt x="832" y="1011" on="0"/>
        <pt x="787" y="1165" on="0"/>
        <pt x="708" y="1269" on="0"/>
        <pt x="608" y="1323" on="0"/>
        <pt x="552" y="1323" on="1"/>
        <pt x="488" y="1323" on="0"/>
        <pt x="387" y="1272" on="0"/>
        <pt x="318" y="1180" on="0"/>
        <pt x="282" y="1056" on="0"/>
        <pt x="282" y="983" on="1"/>
        <pt x="282" y="918" on="0"/>
        <pt x="314" y="796" on="0"/>
        <pt x="380" y="698" on="0"/>
        <pt x="479" y="641" on="0"/>
        <pt x="546" y="641" on="1"/>
        <pt x="608" y="641" on="0"/>
        <pt x="717" y="690" on="0"/>
        <pt x="802" y="775" on="0"/>
        <pt x="853" y="883" on="0"/>
        <pt x="857" y="942" on="1"/>
        <pt x="945" y="942" on="1"/>
        <pt x="945" y="859" on="0"/>
        <pt x="880" y="698" on="0"/>
        <pt x="764" y="566" on="0"/>
        <pt x="608" y="487" on="0"/>
        <pt x="516" y="487" on="1"/>
        <pt x="408" y="487" on="0"/>
        <pt x="250" y="571" on="0"/>
        <pt x="149" y="711" on="0"/>
        <pt x="100" y="884" on="0"/>
        <pt x="100" y="973" on="1"/>
        <pt x="100" y="1077" on="0"/>
        <pt x="158" y="1259" on="0"/>
        <pt x="272" y="1398" on="0"/>
        <pt x="441" y="1476" on="0"/>
        <pt x="552" y="1476" on="1"/>
        <pt x="677" y="1476" on="0"/>
        <pt x="853" y="1376" on="0"/>
        <pt x="964" y="1208" on="0"/>
        <pt x="1016" y="998" on="0"/>
        <pt x="1016" y="887" on="1"/>
        <pt x="1016" y="820" on="1"/>
        <pt x="1016" y="707" on="0"/>
        <pt x="987" y="474" on="0"/>
        <pt x="906" y="262" on="0"/>
        <pt x="752" y="95" on="0"/>
        <pt x="505" y="-2" on="0"/>
        <pt x="324" y="-2" on="1"/>
        <pt x="305" y="-2" on="1"/>
      </contour>
    </TTGlyph>
    <TTGlyph name="o" xMin="92" yMin="-20" xMax="1077" yMax="1102">
      <contour>
        <pt x="92" y="529" on="1"/>
        <pt x="92" y="552" on="1"/>
        <pt x="92" y="669" on="0"/>
        <pt x="160" y="870" on="0"/>
        <pt x="288" y="1019" on="0"/>
        <pt x="470" y="1102" on="0"/>
        <pt x="583" y="1102" on="1"/>
        <pt x="697" y="1102" on="0"/>
        <pt x="880" y="1019" on="0"/>
        <pt x="1009" y="870" on="0"/>
        <pt x="1077" y="669" on="0"/>
        <pt x="1077" y="552" on="1"/>
        <pt x="1077" y="529" on="1"/>
        <pt x="1077" y="412" on="0"/>
        <pt x="1009" y="212" on="0"/>
        <pt x="880" y="63" on="0"/>
        <pt x="699" y="-20" on="0"/>
        <pt x="585" y="-20" on="1"/>
        <pt x="471" y="-20" on="0"/>
        <pt x="289" y="63" on="0"/>
        <pt x="160" y="212" on="0"/>
        <pt x="92" y="412" on="0"/>
      </contour>
      <contour>
        <pt x="277" y="552" on="1"/>
        <pt x="277" y="529" on="1"/>
        <pt x="277" y="448" on="0"/>
        <pt x="315" y="305" on="0"/>
        <pt x="392" y="195" on="0"/>
        <pt x="508" y="132" on="0"/>
        <pt x="585" y="132" on="1"/>
        <pt x="661" y="132" on="0"/>
        <pt x="776" y="195" on="0"/>
        <pt x="852" y="305" on="0"/>
        <pt x="891" y="448" on="0"/>
        <pt x="891" y="529" on="1"/>
        <pt x="891" y="552" on="1"/>
        <pt x="891" y="632" on="0"/>
        <pt x="852" y="775" on="0"/>
        <pt x="775" y="886" on="0"/>
        <pt x="660" y="950" on="0"/>
        <pt x="583" y="950" on="1"/>
        <pt x="507" y="950" on="0"/>
        <pt x="392" y="886" on="0"/>
        <pt x="315" y="775" on="0"/>
        <pt x="277" y="632" on="0"/>
      </contour>
    </TTGlyph>
    <TTGlyph name="odieresis" xMin="92" yMin="-20" xMax="1077" yMax="1478">
      <component glyphName="o" x="0" y="0" flags="0x204"/>
      <component glyphName="dieresis" x="152" y="0" flags="0x4"/>
    </TTGlyph>
    <TTGlyph name="ohorn" xMin="92" yMin="-20" xMax="1210" yMax="1201">
      <contour>
        <pt x="1061" y="1201" on="1"/>
        <pt x="1210" y="1201" on="1"/>
        <pt x="1210" y="1091" on="0"/>
        <pt x="1150" y="932" on="0"/>
        <pt x="1010" y="846" on="0"/>
        <pt x="890" y="846" on="1"/>
        <pt x="890" y="962" on="1"/>
        <pt x="965" y="962" on="0"/>
        <pt x="1038" y="1022" on="0"/>
        <pt x="1061" y="1130" on="0"/>
      </contour>
      <contour>
        <pt x="92" y="529" on="1"/>
        <pt x="92" y="552" on="1"/>
        <pt x="92" y="669" on="0"/>
        <pt x="160" y="870" on="0"/>
        <pt x="288" y="1019" on="0"/>
        <pt x="470" y="1102" on="0"/>
        <pt x="583" y="1102" on="1"/>
        <pt x="697" y="1102" on="0"/>
        <pt x="880" y="1019" on="0"/>
        <pt x="1008" y="870" on="0"/>
        <pt x="1076" y="669" on="0"/>
        <pt x="1076" y="552" on="1"/>
        <pt x="1076" y="529" on="1"/>
        <pt x="1076" y="412" on="0"/>
        <pt x="1008" y="212" on="0"/>
        <pt x="880" y="63" on="0"/>
        <pt x="699" y="-20" on="0"/>
        <pt x="585" y="-20" on="1"/>
        <pt x="471" y="-20" on="0"/>
        <pt x="289" y="63" on="0"/>
        <pt x="160" y="212" on="0"/>
        <pt x="92" y="412" on="0"/>
      </contour>
      <contour>
        <pt x="277" y="552" on="1"/>
        <pt x="277" y="529" on="1"/>
        <pt x="277" y="448" on="0"/>
        <pt x="315" y="305" on="0"/>
        <pt x="392" y="195" on="0"/>
        <pt x="508" y="132" on="0"/>
        <pt x="585" y="132" on="1"/>
        <pt x="661" y="132" on="0"/>
        <pt x="776" y="195" on="0"/>
        <pt x="852" y="305" on="0"/>
        <pt x="891" y="448" on="0"/>
        <pt x="891" y="529" on="1"/>
        <pt x="891" y="552" on="1"/>
        <pt x="891" y="632" on="0"/>
        <pt x="852" y="775" on="0"/>
        <pt x="775" y="886" on="0"/>
        <pt x="660" y="950" on="0"/>
        <pt x="583" y="950" on="1"/>
        <pt x="507" y="950" on="0"/>
        <pt x="392" y="886" on="0"/>
        <pt x="315" y="775" on="0"/>
        <pt x="277" y="632" on="0"/>
      </contour>
    </TTGlyph>
    <TTGlyph name="one" xMin="171" yMin="0" xMax="729" yMax="1464">
      <contour>
        <pt x="729" y="1464" on="1"/>
        <pt x="729" y="0" on="1"/>
        <pt x="544" y="0" on="1"/>
        <pt x="544" y="1233" on="1"/>
        <pt x="171" y="1097" on="1"/>
        <pt x="171" y="1264" on="1"/>
        <pt x="700" y="1464" on="1"/>
      </contour>
    </TTGlyph>
    <TTGlyph name="oslash" xMin="92" yMin="-135" xMax="1076" yMax="1209">
      <contour>
        <pt x="983" y="1209" on="1"/>
        <pt x="320" y="-135" on="1"/>
        <pt x="197" y="-135" on="1"/>
        <pt x="860" y="1209" on="1"/>
      </contour>
      <contour>
        <pt x="92" y="529" on="1"/>
        <pt x="92" y="552" on="1"/>
        <pt x="92" y="669" on="0"/>
        <pt x="160" y="870" on="0"/>
        <pt x="288" y="1019" on="0"/>
        <pt x="470" y="1102" on="0"/>
        <pt x="583" y="1102" on="1"/>
        <pt x="697" y="1102" on="0"/>
        <pt x="880" y="1019" on="0"/>
        <pt x="1008" y="870" on="0"/>
        <pt x="1076" y="669" on="0"/>
        <pt x="1076" y="552" on="1"/>
        <pt x="1076" y="529" on="1"/>
        <pt x="1076" y="412" on="0"/>
        <pt x="1008" y="212" on="0"/>
        <pt x="880" y="63" on="0"/>
        <pt x="699" y="-20" on="0"/>
        <pt x="585" y="-20" on="1"/>
        <pt x="471" y="-20" on="0"/>
        <pt x="289" y="63" on="0"/>
        <pt x="160" y="212" on="0"/>
        <pt x="92" y="412" on="0"/>
      </contour>
      <contour>
        <pt x="277" y="552" on="1"/>
        <pt x="277" y="529" on="1"/>
        <pt x="277" y="448" on="0"/>
        <pt x="315" y="305" on="0"/>
        <pt x="392" y="195" on="0"/>
        <pt x="508" y="132" on="0"/>
        <pt x="585" y="132" on="1"/>
        <pt x="661" y="132" on="0"/>
        <pt x="776" y="195" on="0"/>
        <pt x="852" y="305" on="0"/>
        <pt x="891" y="448" on="0"/>
        <pt x="891" y="529" on="1"/>
        <pt x="891" y="552" on="1"/>
        <pt x="891" y="632" on="0"/>
        <pt x="852" y="775" on="0"/>
        <pt x="775" y="886" on="0"/>
        <pt x="660" y="950" on="0"/>
        <pt x="583" y="950" on="1"/>
        <pt x="507" y="950" on="0"/>
        <pt x="392" y="886" on="0"/>
        <pt x="315" y="775" on="0"/>
        <pt x="277" y="632" on="0"/>
      </contour>
    </TTGlyph>
    <TTGlyph name="oslashacute" xMin="92" yMin="-135" xMax="1076" yMax="1535">
      <component glyphName="oslash" x="0" y="0" flags="0x204"/>
      <component glyphName="acute" x="312" y="-1" flags="0x4"/>
    </TTGlyph>
    <TTGlyph name="p" xMin="140" yMin="-416" xMax="1055" yMax="1102">
      <contour>
        <pt x="326" y="874" on="1"/>
        <pt x="326" y="-416" on="1"/>
        <pt x="140" y="-416" on="1"/>
        <pt x="140" y="1082" on="1"/>
        <pt x="310" y="1082" on="1"/>
      </contour>
      <contour>
        <pt x="1055" y="550" on="1"/>
        <pt x="1055" y="529" on="1"/>
        <pt x="1055" y="411" on="0"/>
        <pt x="999" y="210" on="0"/>
        <pt x="892" y="62" on="0"/>
        <pt x="736" y="-20" on="0"/>
        <pt x="635" y="-20" on="1"/>
        <pt x="532" y="-20" on="0"/>
        <pt x="374" y="48" on="0"/>
        <pt x="264" y="178" on="0"/>
        <pt x="199" y="360" on="0"/>
        <pt x="187" y="474" on="1"/>
        <pt x="187" y="586" on="1"/>
        <pt x="199" y="706" on="0"/>
        <pt x="265" y="896" on="0"/>
        <pt x="374" y="1031" on="0"/>
        <pt x="530" y="1102" on="0"/>
        <pt x="632" y="1102" on="1"/>
        <pt x="734" y="1102" on="0"/>
        <pt x="892" y="1023" on="0"/>
        <pt x="1000" y="877" on="0"/>
        <pt x="1055" y="674" on="0"/>
      </contour>
      <contour>
        <pt x="869" y="529" on="1"/>
        <pt x="869" y="550" on="1"/>
        <pt x="869" y="631" on="0"/>
        <pt x="835" y="774" on="0"/>
        <pt x="764" y="883" on="0"/>
        <pt x="654" y="946" on="0"/>
        <pt x="578" y="946" on="1"/>
        <pt x="508" y="946" on="0"/>
        <pt x="405" y="898" on="0"/>
        <pt x="333" y="817" on="0"/>
        <pt x="288" y="714" on="0"/>
        <pt x="277" y="659" on="1"/>
        <pt x="277" y="400" on="1"/>
        <pt x="297" y="330" on="0"/>
        <pt x="369" y="207" on="0"/>
        <pt x="489" y="132" on="0"/>
        <pt x="580" y="132" on="1"/>
        <pt x="655" y="132" on="0"/>
        <pt x="764" y="195" on="0"/>
        <pt x="835" y="305" on="0"/>
        <pt x="869" y="448" on="0"/>
      </contour>
    </TTGlyph>
    <TTGlyph name="period" xMin="144" yMin="-12" xMax="374" yMax="210">
      <contour>
        <pt x="144" y="98" on="1"/>
        <pt x="144" y="145" on="0"/>
        <pt x="203" y="210" on="0"/>
        <pt x="259" y="210" on="1"/>
        <pt x="315" y="210" on="0"/>
        <pt x="374" y="145" on="0"/>
        <pt x="374" y="98" on="1"/>
        <pt x="374" y="52" on="0"/>
        <pt x="315" y="-12" on="0"/>
        <pt x="259" y="-12" on="1"/>
        <pt x="203" y="-12" on="0"/>
        <pt x="144" y="52" on="0"/>
      </contour>
    </TTGlyph>
    <TTGlyph name="q" xMin="95" yMin="-416" xMax="1008" yMax="1102">
      <contour>
        <pt x="822" y="-416" on="1"/>
        <pt x="822" y="874" on="1"/>
        <pt x="838" y="1082" on="1"/>
        <pt x="1008" y="1082" on="1"/>
        <pt x="1008" y="-416" on="1"/>
      </contour>
      <contour>
        <pt x="95" y="529" on="1"/>
        <pt x="95" y="550" on="1"/>
        <pt x="95" y="674" on="0"/>
        <pt x="153" y="877" on="0"/>
        <pt x="265" y="1023" on="0"/>
        <pt x="424" y="1102" on="0"/>
        <pt x="526" y="1102" on="1"/>
        <pt x="628" y="1102" on="0"/>
        <pt x="783" y="1031" on="0"/>
        <pt x="892" y="896" on="0"/>
        <pt x="956" y="706" on="0"/>
        <pt x="968" y="586" on="1"/>
        <pt x="968" y="494" on="1"/>
        <pt x="957" y="375" on="0"/>
        <pt x="893" y="185" on="0"/>
        <pt x="784" y="51" on="0"/>
        <pt x="627" y="-20" on="0"/>
        <pt x="524" y="-20" on="1"/>
        <pt x="424" y="-20" on="0"/>
        <pt x="265" y="62" on="0"/>
        <pt x="154" y="210" on="0"/>
        <pt x="95" y="411" on="0"/>
      </contour>
      <contour>
        <pt x="281" y="550" on="1"/>
        <pt x="281" y="529" on="1"/>
        <pt x="281" y="448" on="0"/>
        <pt x="315" y="305" on="0"/>
        <pt x="386" y="195" on="0"/>
        <pt x="495" y="132" on="0"/>
        <pt x="570" y="132" on="1"/>
        <pt x="662" y="132" on="0"/>
        <pt x="785" y="212" on="0"/>
        <pt x="859" y="343" on="0"/>
        <pt x="879" y="418" on="1"/>
        <pt x="879" y="659" on="1"/>
        <pt x="868" y="714" on="0"/>
        <pt x="821" y="818" on="0"/>
        <pt x="747" y="901" on="0"/>
        <pt x="642" y="950" on="0"/>
        <pt x="572" y="950" on="1"/>
        <pt x="496" y="950" on="0"/>
        <pt x="386" y="886" on="0"/>
        <pt x="315" y="775" on="0"/>
        <pt x="281" y="631" on="0"/>
      </contour>
    </TTGlyph>
    <TTGlyph name="quotedbl" xMin="137" yMin="1043" xMax="548" yMax="1536">
      <contour>
        <pt x="278" y="1536" on="1"/>
        <pt x="278" y="1400" on="1"/>
        <pt x="248" y="1043" on="1"/>
        <pt x="137" y="1043" on="1"/>
        <pt x="137" y="1391" on="1"/>
        <pt x="137" y="1536" on="1"/>
      </contour>
      <contour>
        <pt x="548" y="1536" on="1"/>
        <pt x="548" y="1400" on="1"/>
        <pt x="518" y="1043" on="1"/>
        <pt x="407" y="1043" on="1"/>
        <pt x="407" y="1398" on="1"/>
        <pt x="407" y="1536" on="1"/>
      </contour>
    </TTGlyph>
    <TTGlyph name="r" xMin="141" yMin="0" xMax="664" yMax="1102">
      <contour>
        <pt x="326" y="912" on="1"/>
        <pt x="326" y="0" on="1"/>
        <pt x="141" y="0" on="1"/>
        <pt x="141" y="1082" on="1"/>
        <pt x="321" y="1082" on="1"/>
      </contour>
      <contour>
        <pt x="664" y="1088" on="1"/>
        <pt x="663" y="916" on="1"/>
        <pt x="640" y="921" on="0"/>
        <pt x="599" y="924" on="0"/>
        <pt x="573" y="924" on="1"/>
        <pt x="509" y="924" on="0"/>
        <pt x="411" y="884" on="0"/>
        <pt x="343" y="812" on="0"/>
        <pt x="304" y="713" on="0"/>
        <pt x="298" y="654" on="1"/>
        <pt x="246" y="624" on="1"/>
        <pt x="246" y="722" on="0"/>
        <pt x="285" y="894" on="0"/>
        <pt x="367" y="1027" on="0"/>
        <pt x="494" y="1102" on="0"/>
        <pt x="582" y="1102" on="1"/>
        <pt x="602" y="1102" on="0"/>
        <pt x="654" y="1093" on="0"/>
      </contour>
    </TTGlyph>
    <TTGlyph name="s" xMin="95" yMin="-20" xMax="956" yMax="1102">
      <contour>
        <pt x="771" y="287" on="1"/>
        <pt x="771" y="327" on="0"/>
        <pt x="736" y="396" on="0"/>
        <pt x="629" y="453" on="0"/>
        <pt x="522" y="474" on="1"/>
        <pt x="432" y="493" on="0"/>
        <pt x="287" y="545" on="0"/>
        <pt x="186" y="619" on="0"/>
        <pt x="132" y="719" on="0"/>
        <pt x="132" y="786" on="1"/>
        <pt x="132" y="850" on="0"/>
        <pt x="189" y="964" on="0"/>
        <pt x="294" y="1052" on="0"/>
        <pt x="442" y="1102" on="0"/>
        <pt x="533" y="1102" on="1"/>
        <pt x="663" y="1102" on="0"/>
        <pt x="847" y="1010" on="0"/>
        <pt x="945" y="857" on="0"/>
        <pt x="945" y="764" on="1"/>
        <pt x="760" y="764" on="1"/>
        <pt x="760" y="809" on="0"/>
        <pt x="707" y="894" on="0"/>
        <pt x="606" y="950" on="0"/>
        <pt x="533" y="950" on="1"/>
        <pt x="456" y="950" on="0"/>
        <pt x="361" y="903" on="0"/>
        <pt x="318" y="831" on="0"/>
        <pt x="318" y="791" on="1"/>
        <pt x="318" y="761" on="0"/>
        <pt x="339" y="714" on="0"/>
        <pt x="393" y="675" on="0"/>
        <pt x="491" y="641" on="0"/>
        <pt x="567" y="624" on="1"/>
        <pt x="700" y="594" on="0"/>
        <pt x="872" y="510" on="0"/>
        <pt x="956" y="388" on="0"/>
        <pt x="956" y="301" on="1"/>
        <pt x="956" y="230" on="0"/>
        <pt x="897" y="112" on="0"/>
        <pt x="786" y="27" on="0"/>
        <pt x="633" y="-20" on="0"/>
        <pt x="538" y="-20" on="1"/>
        <pt x="395" y="-20" on="0"/>
        <pt x="197" y="82" on="0"/>
        <pt x="95" y="244" on="0"/>
        <pt x="95" y="334" on="1"/>
        <pt x="281" y="334" on="1"/>
        <pt x="285" y="258" on="0"/>
        <pt x="365" y="169" on="0"/>
        <pt x="481" y="132" on="0"/>
        <pt x="538" y="132" on="1"/>
        <pt x="614" y="132" on="0"/>
        <pt x="717" y="172" on="0"/>
        <pt x="771" y="242" on="0"/>
      </contour>
    </TTGlyph>
    <TTGlyph name="scaron" xMin="95" yMin="-20" xMax="956" yMax="1535">
      <component glyphName="s" x="0" y="0" flags="0x204"/>
      <component glyphName="caron" x="112" y="0" flags="0x4"/>
    </TTGlyph>
    <TTGlyph name="semicolon" xMin="41" yMin="-291" xMax="340" yMax="1093">
      <component glyphName="period" x="-34" y="883" flags="0x4"/>
      <component glyphName="comma" x="12" y="0" flags="0x4"/>
    </TTGlyph>
    <TTGlyph name="seven" xMin="78" yMin="0" xMax="1062" yMax="1456">
      <contour>
        <pt x="1062" y="1456" on="1"/>
        <pt x="1062" y="1352" on="1"/>
        <pt x="459" y="0" on="1"/>
        <pt x="264" y="0" on="1"/>
        <pt x="866" y="1304" on="1"/>
        <pt x="78" y="1304" on="1"/>
        <pt x="78" y="1456" on="1"/>
      </contour>
    </TTGlyph>
    <TTGlyph name="six" xMin="133" yMin="-20" xMax="1053" yMax="1458">
      <contour>
        <pt x="831" y="1458" on="1"/>
        <pt x="847" y="1458" on="1"/>
        <pt x="847" y="1301" on="1"/>
        <pt x="831" y="1301" on="1"/>
        <pt x="684" y="1301" on="0"/>
        <pt x="486" y="1206" on="0"/>
        <pt x="370" y="1047" on="0"/>
        <pt x="319" y="849" on="0"/>
        <pt x="319" y="747" on="1"/>
        <pt x="319" y="533" on="1"/>
        <pt x="319" y="436" on="0"/>
        <pt x="365" y="287" on="0"/>
        <pt x="445" y="185" on="0"/>
        <pt x="546" y="133" on="0"/>
        <pt x="601" y="133" on="1"/>
        <pt x="665" y="133" on="0"/>
        <pt x="765" y="182" on="0"/>
        <pt x="834" y="271" on="0"/>
        <pt x="870" y="393" on="0"/>
        <pt x="870" y="466" on="1"/>
        <pt x="870" y="531" on="0"/>
        <pt x="838" y="652" on="0"/>
        <pt x="772" y="747" on="0"/>
        <pt x="673" y="802" on="0"/>
        <pt x="605" y="802" on="1"/>
        <pt x="528" y="802" on="0"/>
        <pt x="395" y="727" on="0"/>
        <pt x="310" y="606" on="0"/>
        <pt x="304" y="535" on="1"/>
        <pt x="206" y="536" on="1"/>
        <pt x="220" y="648" on="0"/>
        <pt x="297" y="807" on="0"/>
        <pt x="412" y="908" on="0"/>
        <pt x="555" y="955" on="0"/>
        <pt x="635" y="955" on="1"/>
        <pt x="744" y="955" on="0"/>
        <pt x="902" y="873" on="0"/>
        <pt x="1004" y="736" on="0"/>
        <pt x="1053" y="565" on="0"/>
        <pt x="1053" y="475" on="1"/>
        <pt x="1053" y="372" on="0"/>
        <pt x="995" y="192" on="0"/>
        <pt x="880" y="56" on="0"/>
        <pt x="712" y="-20" on="0"/>
        <pt x="601" y="-20" on="1"/>
        <pt x="483" y="-20" on="0"/>
        <pt x="307" y="77" on="0"/>
        <pt x="191" y="239" on="0"/>
        <pt x="133" y="437" on="0"/>
        <pt x="133" y="539" on="1"/>
        <pt x="133" y="626" on="1"/>
        <pt x="133" y="780" on="0"/>
        <pt x="195" y="1076" on="0"/>
        <pt x="348" y="1316" on="0"/>
        <pt x="620" y="1458" on="0"/>
      </contour>
    </TTGlyph>
    <TTGlyph name="slash" xMin="19" yMin="-125" xMax="785" yMax="1456">
      <contour>
        <pt x="785" y="1456" on="1"/>
        <pt x="178" y="-125" on="1"/>
        <pt x="19" y="-125" on="1"/>
        <pt x="627" y="1456" on="1"/>
      </contour>
    </TTGlyph>
    <TTGlyph name="t" xMin="9" yMin="-20" xMax="599" yMax="1345">
      <contour>
        <pt x="594" y="1082" on="1"/>
        <pt x="594" y="940" on="1"/>
        <pt x="9" y="940" on="1"/>
        <pt x="9" y="1082" on="1"/>
      </contour>
      <contour>
        <pt x="207" y="1345" on="1"/>
        <pt x="392" y="1345" on="1"/>
        <pt x="392" y="268" on="1"/>
        <pt x="392" y="213" on="0"/>
        <pt x="426" y="157" on="0"/>
        <pt x="480" y="139" on="0"/>
        <pt x="511" y="139" on="1"/>
        <pt x="534" y="139" on="0"/>
        <pt x="585" y="148" on="0"/>
        <pt x="598" y="151" on="1"/>
        <pt x="599" y="0" on="1"/>
        <pt x="577" y="-7" on="0"/>
        <pt x="506" y="-20" on="0"/>
        <pt x="456" y="-20" on="1"/>
        <pt x="388" y="-20" on="0"/>
        <pt x="274" y="34" on="0"/>
        <pt x="207" y="161" on="0"/>
        <pt x="207" y="269" on="1"/>
      </contour>
    </TTGlyph>
    <TTGlyph name="tcaron" xMin="9" yMin="-20" xMax="748" yMax="1658">
      <component glyphName="t" x="0" y="0" flags="0x4"/>
      <component glyphName="uniF6C3" x="405" y="1419" flags="0x4"/>
    </TTGlyph>
    <TTGlyph name="three" xMin="95" yMin="-20" xMax="1018" yMax="1476">
      <contour>
        <pt x="391" y="819" on="1"/>
        <pt x="523" y="819" on="1"/>
        <pt x="620" y="819" on="0"/>
        <pt x="747" y="884" on="0"/>
        <pt x="810" y="997" on="0"/>
        <pt x="810" y="1068" on="1"/>
        <pt x="810" y="1152" on="0"/>
        <pt x="754" y="1266" on="0"/>
        <pt x="642" y="1324" on="0"/>
        <pt x="556" y="1324" on="1"/>
        <pt x="478" y="1324" on="0"/>
        <pt x="359" y="1263" on="0"/>
        <pt x="292" y="1151" on="0"/>
        <pt x="292" y="1075" on="1"/>
        <pt x="107" y="1075" on="1"/>
        <pt x="107" y="1186" on="0"/>
        <pt x="219" y="1368" on="0"/>
        <pt x="422" y="1476" on="0"/>
        <pt x="556" y="1476" on="1"/>
        <pt x="688" y="1476" on="0"/>
        <pt x="886" y="1383" on="0"/>
        <pt x="996" y="1200" on="0"/>
        <pt x="996" y="1064" on="1"/>
        <pt x="996" y="1009" on="0"/>
        <pt x="945" y="884" on="0"/>
        <pt x="838" y="776" on="0"/>
        <pt x="668" y="707" on="0"/>
        <pt x="549" y="707" on="1"/>
        <pt x="391" y="707" on="1"/>
      </contour>
      <contour>
        <pt x="391" y="667" on="1"/>
        <pt x="391" y="778" on="1"/>
        <pt x="549" y="778" on="1"/>
        <pt x="688" y="778" on="0"/>
        <pt x="870" y="712" on="0"/>
        <pt x="975" y="602" on="0"/>
        <pt x="1018" y="471" on="0"/>
        <pt x="1018" y="406" on="1"/>
        <pt x="1018" y="304" on="0"/>
        <pt x="949" y="146" on="0"/>
        <pt x="824" y="36" on="0"/>
        <pt x="656" y="-20" on="0"/>
        <pt x="557" y="-20" on="1"/>
        <pt x="462" y="-20" on="0"/>
        <pt x="295" y="34" on="0"/>
        <pt x="167" y="137" on="0"/>
        <pt x="95" y="288" on="0"/>
        <pt x="95" y="385" on="1"/>
        <pt x="280" y="385" on="1"/>
        <pt x="280" y="309" on="0"/>
        <pt x="347" y="195" on="0"/>
        <pt x="472" y="132" on="0"/>
        <pt x="557" y="132" on="1"/>
        <pt x="642" y="132" on="0"/>
        <pt x="765" y="191" on="0"/>
        <pt x="832" y="311" on="0"/>
        <pt x="832" y="402" on="1"/>
        <pt x="832" y="493" on="0"/>
        <pt x="756" y="610" on="0"/>
        <pt x="617" y="667" on="0"/>
        <pt x="523" y="667" on="1"/>
      </contour>
    </TTGlyph>
    <TTGlyph name="tilde" xMin="123" yMin="1242" xMax="831" yMax="1512">
      <contour>
        <pt x="706" y="1512" on="1"/>
        <pt x="831" y="1501" on="1"/>
        <pt x="831" y="1428" on="0"/>
        <pt x="773" y="1318" on="0"/>
        <pt x="676" y="1258" on="0"/>
        <pt x="615" y="1258" on="1"/>
        <pt x="564" y="1258" on="0"/>
        <pt x="498" y="1287" on="0"/>
        <pt x="446" y="1324" on="0"/>
        <pt x="389" y="1353" on="0"/>
        <pt x="347" y="1353" on="1"/>
        <pt x="305" y="1353" on="0"/>
        <pt x="248" y="1289" on="0"/>
        <pt x="248" y="1242" on="1"/>
        <pt x="123" y="1248" on="1"/>
        <pt x="123" y="1321" on="0"/>
        <pt x="180" y="1432" on="0"/>
        <pt x="278" y="1495" on="0"/>
        <pt x="338" y="1495" on="1"/>
        <pt x="381" y="1495" on="0"/>
        <pt x="446" y="1466" on="0"/>
        <pt x="504" y="1429" on="0"/>
        <pt x="566" y="1400" on="0"/>
        <pt x="606" y="1400" on="1"/>
        <pt x="648" y="1400" on="0"/>
        <pt x="706" y="1465" on="0"/>
      </contour>
    </TTGlyph>
    <TTGlyph name="tonos" xMin="184" yMin="1263" xMax="412" yMax="1599">
      <contour>
        <pt x="184" y="1263" on="1"/>
        <pt x="238" y="1599" on="1"/>
        <pt x="412" y="1599" on="1"/>
        <pt x="296" y="1263" on="1"/>
      </contour>
    </TTGlyph>
    <TTGlyph name="two" xMin="94" yMin="0" xMax="1075" yMax="1476">
      <contour>
        <pt x="1075" y="152" on="1"/>
        <pt x="1075" y="0" on="1"/>
        <pt x="122" y="0" on="1"/>
        <pt x="122" y="133" on="1"/>
        <pt x="599" y="664" on="1"/>
        <pt x="687" y="762" on="0"/>
        <pt x="784" y="899" on="0"/>
        <pt x="823" y="1008" on="0"/>
        <pt x="823" y="1065" on="1"/>
        <pt x="823" y="1137" on="0"/>
        <pt x="764" y="1254" on="0"/>
        <pt x="650" y="1324" on="0"/>
        <pt x="569" y="1324" on="1"/>
        <pt x="472" y="1324" on="0"/>
        <pt x="343" y="1249" on="0"/>
        <pt x="279" y="1115" on="0"/>
        <pt x="279" y="1028" on="1"/>
        <pt x="94" y="1028" on="1"/>
        <pt x="94" y="1151" on="0"/>
        <pt x="202" y="1355" on="0"/>
        <pt x="414" y="1476" on="0"/>
        <pt x="569" y="1476" on="1"/>
        <pt x="707" y="1476" on="0"/>
        <pt x="903" y="1379" on="0"/>
        <pt x="1008" y="1204" on="0"/>
        <pt x="1008" y="1087" on="1"/>
        <pt x="1008" y="1023" on="0"/>
        <pt x="965" y="892" on="0"/>
        <pt x="890" y="762" on="0"/>
        <pt x="791" y="636" on="0"/>
        <pt x="735" y="575" on="1"/>
        <pt x="345" y="152" on="1"/>
      </contour>
    </TTGlyph>
    <TTGlyph name="u" xMin="137" yMin="-20" xMax="989" yMax="1082">
      <contour>
        <pt x="803" y="250" on="1"/>
        <pt x="803" y="1082" on="1"/>
        <pt x="989" y="1082" on="1"/>
        <pt x="989" y="0" on="1"/>
        <pt x="812" y="0" on="1"/>
      </contour>
      <contour>
        <pt x="838" y="478" on="1"/>
        <pt x="915" y="480" on="1"/>
        <pt x="915" y="372" on="0"/>
        <pt x="870" y="189" on="0"/>
        <pt x="770" y="55" on="0"/>
        <pt x="608" y="-20" on="0"/>
        <pt x="492" y="-20" on="1"/>
        <pt x="413" y="-20" on="0"/>
        <pt x="282" y="26" on="0"/>
        <pt x="188" y="122" on="0"/>
        <pt x="137" y="276" on="0"/>
        <pt x="137" y="384" on="1"/>
        <pt x="137" y="1082" on="1"/>
        <pt x="322" y="1082" on="1"/>
        <pt x="322" y="382" on="1"/>
        <pt x="322" y="309" on="0"/>
        <pt x="355" y="214" on="0"/>
        <pt x="412" y="159" on="0"/>
        <pt x="483" y="137" on="0"/>
        <pt x="521" y="137" on="1"/>
        <pt x="639" y="137" on="0"/>
        <pt x="777" y="228" on="0"/>
        <pt x="838" y="383" on="0"/>
      </contour>
    </TTGlyph>
    <TTGlyph name="uhorn" xMin="137" yMin="-20" xMax="1296" yMax="1169">
      <contour>
        <pt x="1154" y="1169" on="1"/>
        <pt x="1296" y="1169" on="1"/>
        <pt x="1296" y="1060" on="0"/>
        <pt x="1239" y="912" on="0"/>
        <pt x="1097" y="838" on="0"/>
        <pt x="968" y="838" on="1"/>
        <pt x="968" y="952" on="1"/>
        <pt x="1058" y="952" on="0"/>
        <pt x="1136" y="997" on="0"/>
        <pt x="1154" y="1093" on="0"/>
      </contour>
      <contour>
        <pt x="803" y="250" on="1"/>
        <pt x="803" y="1082" on="1"/>
        <pt x="989" y="1082" on="1"/>
        <pt x="989" y="0" on="1"/>
        <pt x="812" y="0" on="1"/>
      </contour>
      <contour>
        <pt x="838" y="478" on="1"/>
        <pt x="915" y="480" on="1"/>
        <pt x="915" y="372" on="0"/>
        <pt x="870" y="189" on="0"/>
        <pt x="770" y="55" on="0"/>
        <pt x="608" y="-20" on="0"/>
        <pt x="492" y="-20" on="1"/>
        <pt x="413" y="-20" on="0"/>
        <pt x="282" y="26" on="0"/>
        <pt x="188" y="122" on="0"/>
        <pt x="137" y="276" on="0"/>
        <pt x="137" y="384" on="1"/>
        <pt x="137" y="1082" on="1"/>
        <pt x="322" y="1082" on="1"/>
        <pt x="322" y="382" on="1"/>
        <pt x="322" y="309" on="0"/>
        <pt x="355" y="214" on="0"/>
        <pt x="412" y="159" on="0"/>
        <pt x="483" y="137" on="0"/>
        <pt x="521" y="137" on="1"/>
        <pt x="639" y="137" on="0"/>
        <pt x="777" y="228" on="0"/>
        <pt x="838" y="383" on="0"/>
      </contour>
    </TTGlyph>
    <TTGlyph name="uni00B2" xMin="66" yMin="667" xMax="683" yMax="1467">
      <contour>
        <pt x="683" y="795" on="1"/>
        <pt x="683" y="667" on="1"/>
        <pt x="85" y="667" on="1"/>
        <pt x="85" y="775" on="1"/>
        <pt x="373" y="1046" on="1"/>
        <pt x="418" y="1088" on="0"/>
        <pt x="470" y="1154" on="0"/>
        <pt x="493" y="1207" on="0"/>
        <pt x="493" y="1229" on="1"/>
        <pt x="493" y="1277" on="0"/>
        <pt x="429" y="1339" on="0"/>
        <pt x="370" y="1339" on="1"/>
        <pt x="295" y="1339" on="0"/>
        <pt x="224" y="1263" on="0"/>
        <pt x="224" y="1206" on="1"/>
        <pt x="66" y="1206" on="1"/>
        <pt x="66" y="1278" on="0"/>
        <pt x="138" y="1396" on="0"/>
        <pt x="272" y="1467" on="0"/>
        <pt x="366" y="1467" on="1"/>
        <pt x="456" y="1467" on="0"/>
        <pt x="584" y="1409" on="0"/>
        <pt x="652" y="1304" on="0"/>
        <pt x="652" y="1231" on="1"/>
        <pt x="652" y="1178" on="0"/>
        <pt x="605" y="1086" on="0"/>
        <pt x="519" y="994" on="0"/>
        <pt x="460" y="941" on="1"/>
        <pt x="285" y="795" on="1"/>
      </contour>
    </TTGlyph>
    <TTGlyph name="uni00B3" xMin="63" yMin="656" xMax="667" yMax="1467">
      <contour>
        <pt x="266" y="1126" on="1"/>
        <pt x="350" y="1126" on="1"/>
        <pt x="399" y="1126" on="0"/>
        <pt x="463" y="1154" on="0"/>
        <pt x="496" y="1203" on="0"/>
        <pt x="496" y="1235" on="1"/>
        <pt x="496" y="1279" on="0"/>
        <pt x="432" y="1339" on="0"/>
        <pt x="363" y="1339" on="1"/>
        <pt x="306" y="1339" on="0"/>
        <pt x="231" y="1289" on="0"/>
        <pt x="231" y="1246" on="1"/>
        <pt x="74" y="1246" on="1"/>
        <pt x="74" y="1314" on="0"/>
        <pt x="150" y="1413" on="0"/>
        <pt x="280" y="1467" on="0"/>
        <pt x="360" y="1467" on="1"/>
        <pt x="447" y="1467" on="0"/>
        <pt x="579" y="1416" on="0"/>
        <pt x="653" y="1316" on="0"/>
        <pt x="653" y="1243" on="1"/>
        <pt x="653" y="1190" on="0"/>
        <pt x="588" y="1101" on="0"/>
        <pt x="465" y="1048" on="0"/>
        <pt x="377" y="1048" on="1"/>
        <pt x="266" y="1048" on="1"/>
      </contour>
      <contour>
        <pt x="266" y="1011" on="1"/>
        <pt x="266" y="1089" on="1"/>
        <pt x="377" y="1089" on="1"/>
        <pt x="477" y="1089" on="0"/>
        <pt x="605" y="1041" on="0"/>
        <pt x="667" y="951" on="0"/>
        <pt x="667" y="887" on="1"/>
        <pt x="667" y="814" on="0"/>
        <pt x="587" y="710" on="0"/>
        <pt x="448" y="656" on="0"/>
        <pt x="361" y="656" on="1"/>
        <pt x="286" y="656" on="0"/>
        <pt x="149" y="705" on="0"/>
        <pt x="63" y="809" on="0"/>
        <pt x="63" y="890" on="1"/>
        <pt x="220" y="890" on="1"/>
        <pt x="220" y="845" on="0"/>
        <pt x="300" y="784" on="0"/>
        <pt x="366" y="784" on="1"/>
        <pt x="436" y="784" on="0"/>
        <pt x="509" y="846" on="0"/>
        <pt x="509" y="895" on="1"/>
        <pt x="509" y="937" on="0"/>
        <pt x="470" y="988" on="0"/>
        <pt x="399" y="1011" on="0"/>
        <pt x="350" y="1011" on="1"/>
      </contour>
    </TTGlyph>
    <TTGlyph name="uni00B9" xMin="123" yMin="667" xMax="495" yMax="1456">
      <contour>
        <pt x="495" y="1456" on="1"/>
        <pt x="495" y="667" on="1"/>
        <pt x="339" y="667" on="1"/>
        <pt x="339" y="1268" on="1"/>
        <pt x="123" y="1211" on="1"/>
        <pt x="123" y="1340" on="1"/>
        <pt x="477" y="1456" on="1"/>
      </contour>
    </TTGlyph>
    <TTGlyph name="uni0122" xMin="122" yMin="-525" xMax="1245" yMax="1476">
      <component glyphName="G" x="0" y="0" flags="0x204"/>
      <component glyphName="uniF6C3" x="474" y="-363" flags="0x4"/>
    </TTGlyph>
    <TTGlyph name="uni0136" xMin="169" yMin="-426" xMax="1285" yMax="1456">
      <component glyphName="K" x="0" y="0" flags="0x4"/>
      <component glyphName="uniF6C3" x="404" y="-264" flags="0x4"/>
    </TTGlyph>
    <TTGlyph name="uni0137" xMin="141" yMin="-445" xMax="1037" yMax="1536">
      <component glyphName="k" x="0" y="0" flags="0x204"/>
      <component glyphName="uniF6C3" x="273" y="-283" flags="0x4"/>
    </TTGlyph>
    <TTGlyph name="uni013B" xMin="169" yMin="-506" xMax="1052" yMax="1456">
      <component glyphName="L" x="0" y="0" flags="0x4"/>
      <component glyphName="uniF6C3" x="364" y="-344" flags="0x4"/>
    </TTGlyph>
    <TTGlyph name="uni013C" xMin="86" yMin="-506" xMax="342" yMax="1536">
      <component glyphName="l" x="0" y="0" flags="0x4"/>
      <component glyphName="uniF6C3" x="-7" y="-344" flags="0x4"/>
    </TTGlyph>
    <TTGlyph name="uni0145" xMin="169" yMin="-506" xMax="1289" yMax="1456">
      <component glyphName="N" x="0" y="0" flags="0x4"/>
      <component glyphName="uniF6C3" x="464" y="-344" flags="0x4"/>
    </TTGlyph>
    <TTGlyph name="uni0146" xMin="141" yMin="-506" xMax="992" yMax="1102">
      <component glyphName="n" x="0" y="0" flags="0x4"/>
      <component glyphName="uniF6C3" x="307" y="-344" flags="0x4"/>
    </TTGlyph>
    <TTGlyph name="uni0156" xMin="169" yMin="-506" xMax="1226" yMax="1456">
      <component glyphName="R" x="0" y="0" flags="0x4"/>
      <component glyphName="uniF6C3" x="355" y="-344" flags="0x4"/>
    </TTGlyph>
    <TTGlyph name="uni0157" xMin="83" yMin="-505" xMax="664" yMax="1102">
      <component glyphName="r" x="0" y="0" flags="0x4"/>
      <component glyphName="uniF6C3" x="-10" y="-343" flags="0x4"/>
    </TTGlyph>
    <TTGlyph name="uni0218" xMin="81" yMin="-517" xMax="1139" yMax="1476">
      <component glyphName="S" x="0" y="0" flags="0x204"/>
      <component glyphName="uniF6C3" x="372" y="-355" flags="0x4"/>
    </TTGlyph>
    <TTGlyph name="uni0219" xMin="95" yMin="-526" xMax="956" yMax="1102">
      <component glyphName="s" x="0" y="0" flags="0x204"/>
      <component glyphName="uniF6C3" x="306" y="-364" flags="0x4"/>
    </TTGlyph>
    <TTGlyph name="uni021A" xMin="50" yMin="-516" xMax="1175" yMax="1456">
      <component glyphName="T" x="0" y="0" flags="0x204"/>
      <component glyphName="uniF6C3" x="358" y="-354" flags="0x4"/>
    </TTGlyph>
    <TTGlyph name="uni021B" xMin="9" yMin="-516" xMax="599" yMax="1345">
      <component glyphName="t" x="0" y="0" flags="0x204"/>
      <component glyphName="uniF6C3" x="197" y="-354" flags="0x4"/>
    </TTGlyph>
    <TTGlyph name="uni0237" xMin="-76" yMin="-437" xMax="358" yMax="1082">
      <contour>
        <pt x="173" y="1082" on="1"/>
        <pt x="358" y="1082" on="1"/>
        <pt x="358" y="-89" on="1"/>
        <pt x="358" y="-201" on="0"/>
        <pt x="281" y="-357" on="0"/>
        <pt x="137" y="-437" on="0"/>
        <pt x="36" y="-437" on="1"/>
        <pt x="5" y="-437" on="0"/>
        <pt x="-47" y="-430" on="0"/>
        <pt x="-76" y="-420" on="1"/>
        <pt x="-62" y="-272" on="1"/>
        <pt x="-47" y="-278" on="0"/>
        <pt x="22" y="-285" on="0"/>
        <pt x="36" y="-285" on="1"/>
        <pt x="79" y="-285" on="0"/>
        <pt x="140" y="-238" on="0"/>
        <pt x="173" y="-150" on="0"/>
        <pt x="173" y="-89" on="1"/>
      </contour>
    </TTGlyph>
    <TTGlyph name="uni1EA0" xMin="29" yMin="-350" xMax="1310" yMax="1456">
      <component glyphName="A" x="0" y="0" flags="0x204"/>
      <component glyphName="dotbelowcomb" x="1283" y="0" flags="0x4"/>
    </TTGlyph>
    <TTGlyph name="uni1EA1" xMin="109" yMin="-350" xMax="1002" yMax="1102">
      <component glyphName="a" x="0" y="0" flags="0x204"/>
      <component glyphName="dotbelowcomb" x="1099" y="0" flags="0x4"/>
    </TTGlyph>
    <TTGlyph name="uni1EA2" xMin="29" yMin="0" xMax="1310" yMax="1979">
      <component glyphName="A" x="0" y="0" flags="0x204"/>
      <component glyphName="hookabovecomb" x="1262" y="327" flags="0x4"/>
    </TTGlyph>
    <TTGlyph name="uni1EA3" xMin="109" yMin="-20" xMax="1002" yMax="1668">
      <component glyphName="a" x="0" y="0" flags="0x204"/>
      <component glyphName="hookabovecomb" x="1172" y="16" flags="0x4"/>
    </TTGlyph>
    <TTGlyph name="uni1EB8" xMin="169" yMin="-340" xMax="1094" yMax="1456">
      <component glyphName="E" x="0" y="0" flags="0x204"/>
      <component glyphName="dotbelowcomb" x="1216" y="10" flags="0x4"/>
    </TTGlyph>
    <TTGlyph name="uni1EB9" xMin="93" yMin="-350" xMax="1011" yMax="1102">
      <component glyphName="e" x="0" y="0" flags="0x204"/>
      <component glyphName="dotbelowcomb" x="1165" y="0" flags="0x4"/>
    </TTGlyph>
    <TTGlyph name="uni1EBA" xMin="169" yMin="0" xMax="1094" yMax="1990">
      <component glyphName="E" x="0" y="0" flags="0x204"/>
      <component glyphName="hookabovecomb" x="1209" y="338" flags="0x4"/>
    </TTGlyph>
    <TTGlyph name="uni1EBB" xMin="93" yMin="-20" xMax="1011" yMax="1668">
      <component glyphName="e" x="0" y="0" flags="0x204"/>
      <component glyphName="hookabovecomb" x="1155" y="16" flags="0x4"/>
    </TTGlyph>
    <TTGlyph name="uni1EC8" xMin="183" yMin="0" xMax="504" yMax="1990">
      <component glyphName="I" x="0" y="0" flags="0x204"/>
      <component glyphName="hookabovecomb" x="869" y="338" flags="0x4"/>
    </TTGlyph>
    <TTGlyph name="uni1EC9" xMin="156" yMin="0" xMax="477" yMax="1666">
      <component glyphName="dotlessi" x="0" y="0" flags="0x204"/>
      <component glyphName="hookabovecomb" x="842" y="14" flags="0x4"/>
    </TTGlyph>
    <TTGlyph name="uni1ECA" xMin="164" yMin="-341" xMax="383" yMax="1456">
      <component glyphName="I" x="0" y="0" flags="0x204"/>
      <component glyphName="dotbelowcomb" x="876" y="9" flags="0x4"/>
    </TTGlyph>
    <TTGlyph name="uni1ECB" xMin="134" yMin="-340" xMax="361" yMax="1476">
      <component glyphName="i" x="0" y="0" flags="0x204"/>
      <component glyphName="dotbelowcomb" x="846" y="10" flags="0x4"/>
    </TTGlyph>
    <TTGlyph name="uni1ECC" xMin="119" yMin="-350" xMax="1290" yMax="1476">
      <component glyphName="O" x="0" y="0" flags="0x204"/>
      <component glyphName="dotbelowcomb" x="1304" y="0" flags="0x4"/>
    </TTGlyph>
    <TTGlyph name="uni1ECD" xMin="92" yMin="-351" xMax="1077" yMax="1102">
      <component glyphName="o" x="0" y="0" flags="0x204"/>
      <component glyphName="dotbelowcomb" x="1181" y="-1" flags="0x4"/>
    </TTGlyph>
    <TTGlyph name="uni1ECE" xMin="119" yMin="-20" xMax="1290" yMax="1981">
      <component glyphName="O" x="0" y="0" flags="0x204"/>
      <component glyphName="hookabovecomb" x="1297" y="329" flags="0x4"/>
    </TTGlyph>
    <TTGlyph name="uni1ECF" xMin="92" yMin="-20" xMax="1077" yMax="1668">
      <component glyphName="o" x="0" y="0" flags="0x204"/>
      <component glyphName="hookabovecomb" x="1165" y="16" flags="0x4"/>
    </TTGlyph>
    <TTGlyph name="uni1EDA" xMin="102" yMin="-20" xMax="1437" yMax="1841">
      <component glyphName="Ohorn" x="0" y="0" flags="0x204"/>
      <component glyphName="acute" x="478" y="305" flags="0x4"/>
    </TTGlyph>
    <TTGlyph name="uni1EDB" xMin="92" yMin="-20" xMax="1210" yMax="1536">
      <component glyphName="ohorn" x="0" y="0" flags="0x204"/>
      <component glyphName="acute" x="357" y="0" flags="0x4"/>
    </TTGlyph>
    <TTGlyph name="uni1EDC" xMin="102" yMin="-20" xMax="1437" yMax="1841">
      <component glyphName="Ohorn" x="0" y="0" flags="0x204"/>
      <component glyphName="grave" x="334" y="305" flags="0x4"/>
    </TTGlyph>
    <TTGlyph name="uni1EDD" xMin="92" yMin="-20" xMax="1210" yMax="1536">
      <component glyphName="ohorn" x="0" y="0" flags="0x204"/>
      <component glyphName="grave" x="213" y="0" flags="0x4"/>
    </TTGlyph>
    <TTGlyph name="uni1EDE" xMin="102" yMin="-20" xMax="1437" yMax="1973">
      <component glyphName="Ohorn" x="0" y="0" flags="0x204"/>
      <component glyphName="hookabovecomb" x="1293" y="321" flags="0x4"/>
    </TTGlyph>
    <TTGlyph name="uni1EDF" xMin="92" yMin="-20" xMax="1210" yMax="1668">
      <component glyphName="ohorn" x="0" y="0" flags="0x204"/>
      <component glyphName="hookabovecomb" x="1172" y="16" flags="0x4"/>
    </TTGlyph>
    <TTGlyph name="uni1EE0" xMin="102" yMin="-20" xMax="1437" yMax="1821">
      <component glyphName="Ohorn" x="0" y="0" flags="0x204"/>
      <component glyphName="tilde" x="227" y="309" flags="0x4"/>
    </TTGlyph>
    <TTGlyph name="uni1EE1" xMin="92" yMin="-20" xMax="1210" yMax="1516">
      <component glyphName="ohorn" x="0" y="0" flags="0x204"/>
      <component glyphName="tilde" x="106" y="4" flags="0x4"/>
    </TTGlyph>
    <TTGlyph name="uni1EE2" xMin="102" yMin="-350" xMax="1437" yMax="1592">
      <component glyphName="Ohorn" x="0" y="0" flags="0x204"/>
      <component glyphName="dotbelowcomb" x="1289" y="0" flags="0x4"/>
    </TTGlyph>
    <TTGlyph name="uni1EE3" xMin="92" yMin="-360" xMax="1210" yMax="1201">
      <component glyphName="ohorn" x="0" y="0" flags="0x204"/>
      <component glyphName="dotbelowcomb" x="1179" y="-10" flags="0x4"/>
    </TTGlyph>
    <TTGlyph name="uni1EE4" xMin="140" yMin="-350" xMax="1194" yMax="1456">
      <component glyphName="U" x="0" y="0" flags="0x204"/>
      <component glyphName="dotbelowcomb" x="1263" y="0" flags="0x4"/>
    </TTGlyph>
    <TTGlyph name="uni1EE5" xMin="137" yMin="-350" xMax="989" yMax="1082">
      <component glyphName="u" x="0" y="0" flags="0x204"/>
      <component glyphName="dotbelowcomb" x="1106" y="0" flags="0x4"/>
    </TTGlyph>
    <TTGlyph name="uni1EE6" xMin="140" yMin="-20" xMax="1194" yMax="1979">
      <component glyphName="U" x="0" y="0" flags="0x204"/>
      <component glyphName="hookabovecomb" x="1257" y="327" flags="0x4"/>
    </TTGlyph>
    <TTGlyph name="uni1EE7" xMin="137" yMin="-20" xMax="989" yMax="1668">
      <component glyphName="u" x="0" y="0" flags="0x204"/>
      <component glyphName="hookabovecomb" x="1157" y="16" flags="0x4"/>
    </TTGlyph>
    <TTGlyph name="uni1EE8" xMin="140" yMin="-20" xMax="1565" yMax="1858">
      <component glyphName="Uhorn" x="0" y="0" flags="0x204"/>
      <component glyphName="acute" x="469" y="322" flags="0x4"/>
    </TTGlyph>
    <TTGlyph name="uni1EE9" xMin="137" yMin="-20" xMax="1296" yMax="1515">
      <component glyphName="uhorn" x="0" y="0" flags="0x204"/>
      <component glyphName="acute" x="355" y="-21" flags="0x4"/>
    </TTGlyph>
    <TTGlyph name="uni1EEA" xMin="140" yMin="-20" xMax="1565" yMax="1858">
      <component glyphName="Uhorn" x="0" y="0" flags="0x204"/>
      <component glyphName="grave" x="325" y="322" flags="0x4"/>
    </TTGlyph>
    <TTGlyph name="uni1EEB" xMin="137" yMin="-20" xMax="1296" yMax="1515">
      <component glyphName="uhorn" x="0" y="0" flags="0x204"/>
      <component glyphName="grave" x="211" y="-21" flags="0x4"/>
    </TTGlyph>
    <TTGlyph name="uni1EEC" xMin="140" yMin="-20" xMax="1565" yMax="1990">
      <component glyphName="Uhorn" x="0" y="0" flags="0x204"/>
      <component glyphName="hookabovecomb" x="1284" y="338" flags="0x4"/>
    </TTGlyph>
    <TTGlyph name="uni1EED" xMin="137" yMin="-20" xMax="1296" yMax="1647">
      <component glyphName="uhorn" x="0" y="0" flags="0x204"/>
      <component glyphName="hookabovecomb" x="1170" y="-5" flags="0x4"/>
    </TTGlyph>
    <TTGlyph name="uni1EEE" xMin="140" yMin="-20" xMax="1565" yMax="1838">
      <component glyphName="Uhorn" x="0" y="0" flags="0x204"/>
      <component glyphName="tilde" x="218" y="326" flags="0x4"/>
    </TTGlyph>
    <TTGlyph name="uni1EEF" xMin="137" yMin="-20" xMax="1296" yMax="1495">
      <component glyphName="uhorn" x="0" y="0" flags="0x204"/>
      <component glyphName="tilde" x="104" y="-17" flags="0x4"/>
    </TTGlyph>
    <TTGlyph name="uni1EF0" xMin="140" yMin="-359" xMax="1565" yMax="1538">
      <component glyphName="Uhorn" x="0" y="0" flags="0x204"/>
      <component glyphName="dotbelowcomb" x="1289" y="-9" flags="0x4"/>
    </TTGlyph>
    <TTGlyph name="uni1EF1" xMin="137" yMin="-350" xMax="1296" yMax="1169">
      <component glyphName="uhorn" x="0" y="0" flags="0x204"/>
      <component glyphName="dotbelowcomb" x="1160" y="0" flags="0x4"/>
    </TTGlyph>
    <TTGlyph name="uni1EF4" xMin="15" yMin="-349" xMax="1212" yMax="1456">
      <component glyphName="Y" x="0" y="0" flags="0x204"/>
      <component glyphName="dotbelowcomb" x="1212" y="1" flags="0x4"/>
    </TTGlyph>
    <TTGlyph name="uni1EF5" xMin="22" yMin="-508" xMax="944" yMax="1082">
      <component glyphName="y" x="0" y="0" flags="0x204"/>
      <component glyphName="dotbelowcomb" x="1309" y="-158" flags="0x4"/>
    </TTGlyph>
    <TTGlyph name="uni1EF6" xMin="15" yMin="0" xMax="1212" yMax="1978">
      <component glyphName="Y" x="0" y="0" flags="0x204"/>
      <component glyphName="hookabovecomb" x="1208" y="326" flags="0x4"/>
    </TTGlyph>
    <TTGlyph name="uni1EF7" xMin="22" yMin="-437" xMax="944" yMax="1668">
      <component glyphName="y" x="0" y="0" flags="0x204"/>
      <component glyphName="hookabovecomb" x="1098" y="16" flags="0x4"/>
    </TTGlyph>
    <TTGlyph name="uni1EF8" xMin="15" yMin="0" xMax="1212" yMax="1826">
      <component glyphName="Y" x="0" y="0" flags="0x204"/>
      <component glyphName="tilde" x="142" y="314" flags="0x4"/>
    </TTGlyph>
    <TTGlyph name="uniF6C3" xMin="93" yMin="-162" xMax="343" yMax="239">
      <contour>
        <pt x="343" y="239" on="1"/>
        <pt x="343" y="160" on="1"/>
        <pt x="343" y="81" on="0"/>
        <pt x="272" y="-101" on="0"/>
        <pt x="198" y="-162" on="1"/>
        <pt x="93" y="-89" on="1"/>
        <pt x="130" y="-32" on="0"/>
        <pt x="167" y="88" on="0"/>
        <pt x="167" y="158" on="1"/>
        <pt x="167" y="239" on="1"/>
      </contour>
    </TTGlyph>
    <TTGlyph name="uniFB01" xMin="32" yMin="0" xMax="973" yMax="1557">
      <contour>
        <pt x="388" y="0" on="1"/>
        <pt x="203" y="0" on="1"/>
        <pt x="203" y="1176" on="1"/>
        <pt x="203" y="1299" on="0"/>
        <pt x="299" y="1469" on="0"/>
        <pt x="477" y="1557" on="0"/>
        <pt x="599" y="1557" on="1"/>
        <pt x="671" y="1557" on="0"/>
        <pt x="809" y="1522" on="0"/>
        <pt x="882" y="1496" on="1"/>
        <pt x="851" y="1340" on="1"/>
        <pt x="805" y="1358" on="0"/>
        <pt x="684" y="1391" on="0"/>
        <pt x="612" y="1391" on="1"/>
        <pt x="493" y="1391" on="0"/>
        <pt x="388" y="1284" on="0"/>
        <pt x="388" y="1176" on="1"/>
      </contour>
      <contour>
        <pt x="609" y="1082" on="1"/>
        <pt x="609" y="940" on="1"/>
        <pt x="32" y="940" on="1"/>
        <pt x="32" y="1082" on="1"/>
      </contour>
      <contour>
        <pt x="973" y="1082" on="1"/>
        <pt x="973" y="0" on="1"/>
        <pt x="788" y="0" on="1"/>
        <pt x="788" y="1082" on="1"/>
      </contour>
    </TTGlyph>
    <TTGlyph name="uniFB02" xMin="61" yMin="0" xMax="1002" yMax="1557">
      <contour>
        <pt x="417" y="0" on="1"/>
        <pt x="232" y="0" on="1"/>
        <pt x="232" y="1196" on="1"/>
        <pt x="232" y="1313" on="0"/>
        <pt x="319" y="1474" on="0"/>
        <pt x="484" y="1557" on="0"/>
        <pt x="602" y="1557" on="1"/>
        <pt x="646" y="1557" on="0"/>
        <pt x="779" y="1539" on="0"/>
        <pt x="930" y="1511" on="0"/>
        <pt x="1002" y="1496" on="1"/>
        <pt x="916" y="1362" on="1"/>
        <pt x="821" y="1380" on="0"/>
        <pt x="669" y="1399" on="0"/>
        <pt x="616" y="1399" on="1"/>
        <pt x="551" y="1399" on="0"/>
        <pt x="462" y="1352" on="0"/>
        <pt x="417" y="1262" on="0"/>
        <pt x="417" y="1196" on="1"/>
      </contour>
      <contour>
        <pt x="817" y="0" on="1"/>
        <pt x="817" y="1496" on="1"/>
        <pt x="1002" y="1496" on="1"/>
        <pt x="1002" y="0" on="1"/>
      </contour>
      <contour>
        <pt x="647" y="1082" on="1"/>
        <pt x="647" y="940" on="1"/>
        <pt x="61" y="940" on="1"/>
        <pt x="61" y="1082" on="1"/>
      </contour>
    </TTGlyph>
    <TTGlyph name="uniFB03" xMin="61" yMin="0" xMax="1587" yMax="1557">
      <contour>
        <pt x="417" y="0" on="1"/>
        <pt x="232" y="0" on="1"/>
        <pt x="232" y="1196" on="1"/>
        <pt x="232" y="1313" on="0"/>
        <pt x="317" y="1474" on="0"/>
        <pt x="477" y="1557" on="0"/>
        <pt x="587" y="1557" on="1"/>
        <pt x="619" y="1557" on="0"/>
        <pt x="684" y="1549" on="0"/>
        <pt x="715" y="1541" on="1"/>
        <pt x="705" y="1390" on="1"/>
        <pt x="684" y="1395" on="0"/>
        <pt x="631" y="1399" on="0"/>
        <pt x="605" y="1399" on="1"/>
        <pt x="546" y="1399" on="0"/>
        <pt x="461" y="1352" on="0"/>
        <pt x="417" y="1262" on="0"/>
        <pt x="417" y="1196" on="1"/>
      </contour>
      <contour>
        <pt x="657" y="1082" on="1"/>
        <pt x="657" y="940" on="1"/>
        <pt x="61" y="940" on="1"/>
        <pt x="61" y="1082" on="1"/>
      </contour>
      <contour>
        <pt x="1002" y="0" on="1"/>
        <pt x="817" y="0" on="1"/>
        <pt x="817" y="1176" on="1"/>
        <pt x="817" y="1299" on="0"/>
        <pt x="912" y="1469" on="0"/>
        <pt x="1090" y="1557" on="0"/>
        <pt x="1212" y="1557" on="1"/>
        <pt x="1285" y="1557" on="0"/>
        <pt x="1423" y="1522" on="0"/>
        <pt x="1496" y="1496" on="1"/>
        <pt x="1464" y="1340" on="1"/>
        <pt x="1419" y="1358" on="0"/>
        <pt x="1297" y="1391" on="0"/>
        <pt x="1226" y="1391" on="1"/>
        <pt x="1107" y="1391" on="0"/>
        <pt x="1002" y="1284" on="0"/>
        <pt x="1002" y="1176" on="1"/>
      </contour>
      <contour>
        <pt x="1223" y="1082" on="1"/>
        <pt x="1223" y="940" on="1"/>
        <pt x="646" y="940" on="1"/>
        <pt x="646" y="1082" on="1"/>
      </contour>
      <contour>
        <pt x="1587" y="1082" on="1"/>
        <pt x="1587" y="0" on="1"/>
        <pt x="1402" y="0" on="1"/>
        <pt x="1402" y="1082" on="1"/>
      </contour>
    </TTGlyph>
    <TTGlyph name="uniFB04" xMin="61" yMin="0" xMax="1587" yMax="1557">
      <contour>
        <pt x="417" y="0" on="1"/>
        <pt x="232" y="0" on="1"/>
        <pt x="232" y="1196" on="1"/>
        <pt x="232" y="1313" on="0"/>
        <pt x="317" y="1474" on="0"/>
        <pt x="477" y="1557" on="0"/>
        <pt x="587" y="1557" on="1"/>
        <pt x="619" y="1557" on="0"/>
        <pt x="684" y="1549" on="0"/>
        <pt x="715" y="1541" on="1"/>
        <pt x="705" y="1390" on="1"/>
        <pt x="684" y="1395" on="0"/>
        <pt x="631" y="1399" on="0"/>
        <pt x="605" y="1399" on="1"/>
        <pt x="546" y="1399" on="0"/>
        <pt x="461" y="1352" on="0"/>
        <pt x="417" y="1262" on="0"/>
        <pt x="417" y="1196" on="1"/>
      </contour>
      <contour>
        <pt x="658" y="1082" on="1"/>
        <pt x="658" y="940" on="1"/>
        <pt x="61" y="940" on="1"/>
        <pt x="61" y="1082" on="1"/>
      </contour>
      <contour>
        <pt x="1002" y="0" on="1"/>
        <pt x="817" y="0" on="1"/>
        <pt x="817" y="1196" on="1"/>
        <pt x="817" y="1313" on="0"/>
        <pt x="904" y="1474" on="0"/>
        <pt x="1069" y="1557" on="0"/>
        <pt x="1187" y="1557" on="1"/>
        <pt x="1231" y="1557" on="0"/>
        <pt x="1364" y="1539" on="0"/>
        <pt x="1515" y="1511" on="0"/>
        <pt x="1587" y="1496" on="1"/>
        <pt x="1501" y="1362" on="1"/>
        <pt x="1406" y="1380" on="0"/>
        <pt x="1254" y="1399" on="0"/>
        <pt x="1201" y="1399" on="1"/>
        <pt x="1136" y="1399" on="0"/>
        <pt x="1047" y="1352" on="0"/>
        <pt x="1002" y="1262" on="0"/>
        <pt x="1002" y="1196" on="1"/>
      </contour>
      <contour>
        <pt x="1402" y="0" on="1"/>
        <pt x="1402" y="1496" on="1"/>
        <pt x="1587" y="1496" on="1"/>
        <pt x="1587" y="0" on="1"/>
      </contour>
      <contour>
        <pt x="1232" y="1082" on="1"/>
        <pt x="1232" y="940" on="1"/>
        <pt x="646" y="940" on="1"/>
        <pt x="646" y="1082" on="1"/>
      </contour>
    </TTGlyph>
    <TTGlyph name="v" xMin="33" yMin="0" xMax="955" yMax="1082">
      <contour>
        <pt x="470" y="167" on="1"/>
        <pt x="766" y="1082" on="1"/>
        <pt x="955" y="1082" on="1"/>
        <pt x="566" y="0" on="1"/>
        <pt x="442" y="0" on="1"/>
      </contour>
      <contour>
        <pt x="223" y="1082" on="1"/>
        <pt x="528" y="162" on="1"/>
        <pt x="549" y="0" on="1"/>
        <pt x="425" y="0" on="1"/>
        <pt x="33" y="1082" on="1"/>
      </contour>
    </TTGlyph>
    <TTGlyph name="w" xMin="43" yMin="0" xMax="1491" yMax="1082">
      <contour>
        <pt x="415" y="192" on="1"/>
        <pt x="693" y="1082" on="1"/>
        <pt x="815" y="1082" on="1"/>
        <pt x="791" y="905" on="1"/>
        <pt x="508" y="0" on="1"/>
        <pt x="389" y="0" on="1"/>
      </contour>
      <contour>
        <pt x="228" y="1082" on="1"/>
        <pt x="465" y="182" on="1"/>
        <pt x="482" y="0" on="1"/>
        <pt x="357" y="0" on="1"/>
        <pt x="43" y="1082" on="1"/>
      </contour>
      <contour>
        <pt x="1081" y="189" on="1"/>
        <pt x="1307" y="1082" on="1"/>
        <pt x="1491" y="1082" on="1"/>
        <pt x="1177" y="0" on="1"/>
        <pt x="1053" y="0" on="1"/>
      </contour>
      <contour>
        <pt x="842" y="1082" on="1"/>
        <pt x="1114" y="207" on="1"/>
        <pt x="1145" y="0" on="1"/>
        <pt x="1027" y="0" on="1"/>
        <pt x="736" y="907" on="1"/>
        <pt x="712" y="1082" on="1"/>
      </contour>
    </TTGlyph>
    <TTGlyph name="x" xMin="42" yMin="0" xMax="971" yMax="1082">
      <contour>
        <pt x="266" y="1082" on="1"/>
        <pt x="503" y="688" on="1"/>
        <pt x="743" y="1082" on="1"/>
        <pt x="960" y="1082" on="1"/>
        <pt x="606" y="548" on="1"/>
        <pt x="971" y="0" on="1"/>
        <pt x="757" y="0" on="1"/>
        <pt x="507" y="406" on="1"/>
        <pt x="257" y="0" on="1"/>
        <pt x="42" y="0" on="1"/>
        <pt x="406" y="548" on="1"/>
        <pt x="53" y="1082" on="1"/>
      </contour>
    </TTGlyph>
    <TTGlyph name="y" xMin="22" yMin="-437" xMax="944" yMax="1082">
      <contour>
        <pt x="445" y="112" on="1"/>
        <pt x="746" y="1082" on="1"/>
        <pt x="944" y="1082" on="1"/>
        <pt x="510" y="-167" on="1"/>
        <pt x="495" y="-207" on="0"/>
        <pt x="446" y="-300" on="0"/>
        <pt x="370" y="-384" on="0"/>
        <pt x="263" y="-437" on="0"/>
        <pt x="189" y="-437" on="1"/>
        <pt x="167" y="-437" on="0"/>
        <pt x="99" y="-425" on="0"/>
        <pt x="85" y="-421" on="1"/>
        <pt x="84" y="-271" on="1"/>
        <pt x="92" y="-272" on="0"/>
        <pt x="127" y="-275" on="0"/>
        <pt x="134" y="-275" on="1"/>
        <pt x="197" y="-275" on="0"/>
        <pt x="285" y="-242" on="0"/>
        <pt x="346" y="-165" on="0"/>
        <pt x="368" y="-98" on="1"/>
      </contour>
      <contour>
        <pt x="224" y="1082" on="1"/>
        <pt x="505" y="242" on="1"/>
        <pt x="553" y="47" on="1"/>
        <pt x="420" y="-21" on="1"/>
        <pt x="22" y="1082" on="1"/>
      </contour>
    </TTGlyph>
    <TTGlyph name="z" xMin="89" yMin="0" xMax="947" yMax="1082">
      <contour>
        <pt x="947" y="152" on="1"/>
        <pt x="947" y="0" on="1"/>
        <pt x="160" y="0" on="1"/>
        <pt x="160" y="152" on="1"/>
      </contour>
      <contour>
        <pt x="918" y="951" on="1"/>
        <pt x="202" y="0" on="1"/>
        <pt x="89" y="0" on="1"/>
        <pt x="89" y="136" on="1"/>
        <pt x="800" y="1082" on="1"/>
        <pt x="918" y="1082" on="1"/>
      </contour>
      <contour>
        <pt x="836" y="1082" on="1"/>
        <pt x="836" y="929" on="1"/>
        <pt x="97" y="929" on="1"/>
        <pt x="97" y="1082" on="1"/>
      </contour>
    </TTGlyph>
    <TTGlyph name="zero" xMin="115" yMin="-20" xMax="1035" yMax="1476">
      <contour>
        <pt x="1035" y="844" on="1"/>
        <pt x="1035" y="622" on="1"/>
        <pt x="1035" y="443" on="0"/>
        <pt x="971" y="197" on="0"/>
        <pt x="851" y="47" on="0"/>
        <pt x="682" y="-20" on="0"/>
        <pt x="576" y="-20" on="1"/>
        <pt x="492" y="-20" on="0"/>
        <pt x="350" y="22" on="0"/>
        <pt x="237" y="115" on="0"/>
        <pt x="157" y="265" on="0"/>
        <pt x="115" y="479" on="0"/>
        <pt x="115" y="622" on="1"/>
        <pt x="115" y="844" on="1"/>
        <pt x="115" y="1023" on="0"/>
        <pt x="180" y="1265" on="0"/>
        <pt x="300" y="1412" on="0"/>
        <pt x="469" y="1476" on="0"/>
        <pt x="574" y="1476" on="1"/>
        <pt x="659" y="1476" on="0"/>
        <pt x="802" y="1435" on="0"/>
        <pt x="914" y="1346" on="0"/>
        <pt x="993" y="1199" on="0"/>
        <pt x="1035" y="987" on="0"/>
      </contour>
      <contour>
        <pt x="849" y="592" on="1"/>
        <pt x="849" y="875" on="1"/>
        <pt x="849" y="973" on="0"/>
        <pt x="826" y="1122" on="0"/>
        <pt x="782" y="1228" on="0"/>
        <pt x="715" y="1294" on="0"/>
        <pt x="628" y="1325" on="0"/>
        <pt x="574" y="1325" on="1"/>
        <pt x="508" y="1325" on="0"/>
        <pt x="406" y="1276" on="0"/>
        <pt x="337" y="1170" on="0"/>
        <pt x="301" y="998" on="0"/>
        <pt x="301" y="875" on="1"/>
        <pt x="301" y="592" on="1"/>
        <pt x="301" y="494" on="0"/>
        <pt x="324" y="344" on="0"/>
        <pt x="370" y="235" on="0"/>
        <pt x="436" y="165" on="0"/>
        <pt x="523" y="132" on="0"/>
        <pt x="576" y="132" on="1"/>
        <pt x="644" y="132" on="0"/>
        <pt x="746" y="184" on="0"/>
        <pt x="815" y="295" on="0"/>
        <pt x="849" y="470" on="0"/>
      </contour>
    </TTGlyph>
</ttFont>
